<svg width="20" height="20" viewBox="0 0 20 20" fill="none" xmlns="http://www.w3.org/2000/svg">
<g clip-path="url(#clip0_187_1725)">
<path fill-rule="evenodd" clip-rule="evenodd" d="M12.7437 0.800278C13.222 0.524137 13.8336 0.688013 14.1098 1.1663L15.7458 4.00003H17.5008C18.5133 4.00003 19.3341 4.82083 19.3341 5.83336V17.5C19.3341 18.5126 18.5133 19.3334 17.5008 19.3334H2.50081C1.4883 19.3334 0.66748 18.5126 0.66748 17.5V5.83336C0.66748 4.82082 1.4883 4.00003 2.50081 4.00003H7.20157L12.7437 0.800278ZM11.2177 3.99072L13.4324 3.99313L12.8777 3.03233L11.2177 3.99072ZM2.66748 6.00003V17.3334H17.3341V14.7504H14.6875C12.9736 14.7504 11.5 13.4154 11.5 11.6671C11.5 9.91882 12.9736 8.58377 14.6875 8.58377H17.3341V6.00003H2.66748ZM13.5 11.6671C13.5 11.1142 13.9851 10.5838 14.6875 10.5838H17.3333V12.7504H14.6875C13.9851 12.7504 13.5 12.22 13.5 11.6671Z" fill="url(#paint0_linear_187_1725)"/>
</g>
<defs>
<linearGradient id="paint0_linear_187_1725" x1="19.1383" y1="17.614" x2="0.173927" y2="16.285" gradientUnits="userSpaceOnUse">
<stop stop-color="#08BBE4"/>
<stop offset="1" stop-color="#54E08C"/>
</linearGradient>
<clipPath id="clip0_187_1725">
<rect width="20" height="20" fill="white"/>
</clipPath>
</defs>
</svg>
