<svg width="556" height="50" viewBox="0 0 556 50" fill="none" xmlns="http://www.w3.org/2000/svg">
<path d="M18.3258 49.56C14.1725 49.56 10.7892 49.2333 8.17582 48.58C5.56249 47.88 3.62582 46.69 2.36582 45.01C1.15249 43.2833 0.545821 40.9267 0.545821 37.94C0.545821 36.26 0.68582 34.3467 0.96582 32.2C1.29249 30.0533 1.75915 27.6267 2.36582 24.92C3.29915 20.7667 4.20915 17.2433 5.09582 14.35C6.02915 11.4567 7.05582 9.1 8.17582 7.28C9.34249 5.41333 10.7658 3.99 12.4458 3.01C14.1258 1.98333 16.2025 1.28333 18.6758 0.909997C21.1492 0.489997 24.1825 0.279997 27.7758 0.279997C29.2225 0.279997 30.7392 0.326665 32.3258 0.42C33.9592 0.513332 35.4992 0.653331 36.9458 0.839998C38.4392 1.02667 39.6992 1.23667 40.7258 1.47L38.8358 10.08C37.2958 9.94 35.9192 9.82333 34.7058 9.73C33.4925 9.63666 32.4425 9.56667 31.5558 9.52C30.7158 9.47333 29.9925 9.45 29.3858 9.45C27.1925 9.45 25.3725 9.54333 23.9258 9.73C22.4792 9.87 21.2892 10.22 20.3558 10.78C19.4225 11.2933 18.6292 12.11 17.9758 13.23C17.3692 14.3033 16.8092 15.7967 16.2958 17.71C15.7825 19.6233 15.2458 22.0267 14.6858 24.92C14.1725 27.3 13.7525 29.3533 13.4258 31.08C13.0992 32.8067 12.9358 34.2067 12.9358 35.28C12.9358 36.7733 13.2625 37.8933 13.9158 38.64C14.5692 39.34 15.5958 39.8067 16.9958 40.04C18.4425 40.2733 20.3792 40.39 22.8058 40.39C24.2992 40.39 25.9792 40.3433 27.8458 40.25C29.7592 40.11 31.4392 39.9467 32.8858 39.76L30.9258 48.58C29.8992 48.7667 28.6625 48.93 27.2158 49.07C25.7692 49.2567 24.2758 49.3733 22.7358 49.42C21.1958 49.5133 19.7258 49.56 18.3258 49.56ZM38.5028 49L46.0628 13.3H56.7728L55.7228 19.67H56.2828C57.3561 17.7567 58.4761 16.31 59.6428 15.33C60.8094 14.35 62.1628 13.6733 63.7028 13.3C65.2894 12.9267 67.1328 12.74 69.2328 12.74L67.0628 22.89C64.6361 22.89 62.5828 23.1233 60.9028 23.59C59.2694 24.01 57.9394 24.7333 56.9128 25.76C55.8861 26.74 55.0228 28.07 54.3228 29.75C53.6694 31.3833 53.0861 33.4367 52.5728 35.91L49.7028 49H38.5028ZM84.9139 49.56C80.8072 49.56 77.5872 49.28 75.2539 48.72C72.9205 48.1133 71.2872 47.1567 70.3539 45.85C69.4205 44.4967 68.9539 42.7933 68.9539 40.74C68.9539 39.48 69.0472 38.0567 69.2339 36.47C69.4672 34.8833 69.7939 33.1333 70.2139 31.22C70.8672 28 71.5905 25.2233 72.3839 22.89C73.1772 20.5567 74.2272 18.6433 75.5339 17.15C76.8872 15.6567 78.7305 14.56 81.0639 13.86C83.3972 13.1133 86.4772 12.74 90.3039 12.74C93.9439 12.74 96.7672 13.02 98.7739 13.58C100.827 14.14 102.251 15.0033 103.044 16.17C103.884 17.3367 104.304 18.8767 104.304 20.79C104.304 21.6767 104.234 22.7033 104.094 23.87C103.954 24.99 103.744 26.18 103.464 27.44C103.231 28.6533 102.951 29.9133 102.624 31.22L101.994 33.95H80.7139C80.5739 34.65 80.4339 35.3733 80.2939 36.12C80.1539 36.8667 80.0839 37.4733 80.0839 37.94C80.0839 38.8733 80.2939 39.5733 80.7139 40.04C81.1805 40.46 82.0205 40.74 83.2339 40.88C84.4939 41.02 86.3139 41.09 88.6939 41.09C89.6272 41.09 90.7005 41.0667 91.9139 41.02C93.1739 40.9733 94.4805 40.9033 95.8339 40.81C97.1872 40.7167 98.4705 40.6233 99.6839 40.53L98.0739 48.37C97.0472 48.6033 95.7872 48.8133 94.2939 49C92.8472 49.1867 91.2839 49.3267 89.6039 49.42C87.9705 49.5133 86.4072 49.56 84.9139 49.56ZM81.9739 28.14H92.8239L93.0339 27.3C93.1739 26.46 93.2905 25.7367 93.3839 25.13C93.4772 24.5233 93.5239 23.9867 93.5239 23.52C93.5239 22.7267 93.3839 22.1433 93.1039 21.77C92.8239 21.35 92.3572 21.0933 91.7039 21C91.0505 20.86 90.1872 20.79 89.1139 20.79C87.8539 20.79 86.8272 20.8833 86.0339 21.07C85.2405 21.21 84.6105 21.5367 84.1439 22.05C83.6772 22.5633 83.2805 23.31 82.9539 24.29C82.6272 25.27 82.3005 26.5533 81.9739 28.14ZM119.029 49.56C116.602 49.56 114.596 49.3033 113.009 48.79C111.469 48.23 110.326 47.2733 109.579 45.92C108.832 44.5667 108.459 42.6767 108.459 40.25C108.459 39.0833 108.552 37.73 108.739 36.19C108.926 34.6033 109.206 32.8533 109.579 30.94C110.326 27.3933 111.119 24.4533 111.959 22.12C112.846 19.74 113.872 17.8733 115.039 16.52C116.206 15.12 117.536 14.14 119.029 13.58C120.569 13.02 122.389 12.74 124.489 12.74C126.122 12.74 127.616 12.8567 128.969 13.09C130.369 13.3233 131.582 13.7667 132.609 14.42C133.636 15.0733 134.406 16.03 134.919 17.29H135.479L136.809 13.3H147.589L140.029 49H129.319L130.019 44.59H129.389C128.502 45.99 127.476 47.0633 126.309 47.81C125.189 48.51 123.999 48.9767 122.739 49.21C121.526 49.4433 120.289 49.56 119.029 49.56ZM124.769 40.6C125.889 40.6 126.799 40.5067 127.499 40.32C128.246 40.1333 128.852 39.83 129.319 39.41C129.832 38.99 130.252 38.4533 130.579 37.8C130.812 37.2867 131.046 36.6333 131.279 35.84C131.559 35 131.816 34.1133 132.049 33.18C132.329 32.2 132.586 31.22 132.819 30.24C133.052 29.26 133.216 28.3267 133.309 27.44C133.449 26.5533 133.519 25.83 133.519 25.27C133.519 23.9167 133.169 22.9833 132.469 22.47C131.769 21.9567 130.509 21.7 128.689 21.7C127.382 21.7 126.309 21.7933 125.469 21.98C124.676 22.1667 123.999 22.5633 123.439 23.17C122.926 23.7767 122.482 24.71 122.109 25.97C121.736 27.23 121.316 28.9567 120.849 31.15C120.522 32.6433 120.266 33.9267 120.079 35C119.939 36.0267 119.869 36.89 119.869 37.59C119.869 38.4767 120.009 39.13 120.289 39.55C120.616 39.97 121.152 40.25 121.899 40.39C122.646 40.53 123.602 40.6 124.769 40.6ZM171.52 49C168.253 49 165.476 48.9533 163.19 48.86C160.903 48.72 159.06 48.44 157.66 48.02C156.26 47.5533 155.233 46.8533 154.58 45.92C153.973 44.9867 153.67 43.7033 153.67 42.07C153.67 41.4633 153.693 40.8333 153.74 40.18C153.833 39.48 153.95 38.7333 154.09 37.94C154.23 37.1467 154.393 36.2833 154.58 35.35L157.52 21.63H150.94L152.69 13.3H159.27L161.44 2.94H172.85L170.68 13.3H178.59L176.84 21.63H168.93L165.99 35.49C165.943 35.7233 165.873 36.0733 165.78 36.54C165.733 37.0067 165.663 37.4733 165.57 37.94C165.476 38.4067 165.43 38.7333 165.43 38.92C165.43 39.5267 165.663 40.04 166.13 40.46C166.596 40.8333 167.366 41.09 168.44 41.23C169.56 41.3233 171.123 41.37 173.13 41.37L171.52 49ZM195.451 49.56C191.344 49.56 188.124 49.28 185.791 48.72C183.458 48.1133 181.824 47.1567 180.891 45.85C179.958 44.4967 179.491 42.7933 179.491 40.74C179.491 39.48 179.584 38.0567 179.771 36.47C180.004 34.8833 180.331 33.1333 180.751 31.22C181.404 28 182.128 25.2233 182.921 22.89C183.714 20.5567 184.764 18.6433 186.071 17.15C187.424 15.6567 189.268 14.56 191.601 13.86C193.934 13.1133 197.014 12.74 200.841 12.74C204.481 12.74 207.304 13.02 209.311 13.58C211.364 14.14 212.788 15.0033 213.581 16.17C214.421 17.3367 214.841 18.8767 214.841 20.79C214.841 21.6767 214.771 22.7033 214.631 23.87C214.491 24.99 214.281 26.18 214.001 27.44C213.768 28.6533 213.488 29.9133 213.161 31.22L212.531 33.95H191.251C191.111 34.65 190.971 35.3733 190.831 36.12C190.691 36.8667 190.621 37.4733 190.621 37.94C190.621 38.8733 190.831 39.5733 191.251 40.04C191.718 40.46 192.558 40.74 193.771 40.88C195.031 41.02 196.851 41.09 199.231 41.09C200.164 41.09 201.238 41.0667 202.451 41.02C203.711 40.9733 205.018 40.9033 206.371 40.81C207.724 40.7167 209.008 40.6233 210.221 40.53L208.611 48.37C207.584 48.6033 206.324 48.8133 204.831 49C203.384 49.1867 201.821 49.3267 200.141 49.42C198.508 49.5133 196.944 49.56 195.451 49.56ZM192.511 28.14H203.361L203.571 27.3C203.711 26.46 203.828 25.7367 203.921 25.13C204.014 24.5233 204.061 23.9867 204.061 23.52C204.061 22.7267 203.921 22.1433 203.641 21.77C203.361 21.35 202.894 21.0933 202.241 21C201.588 20.86 200.724 20.79 199.651 20.79C198.391 20.79 197.364 20.8833 196.571 21.07C195.778 21.21 195.148 21.5367 194.681 22.05C194.214 22.5633 193.818 23.31 193.491 24.29C193.164 25.27 192.838 26.5533 192.511 28.14Z" fill="url(#paint0_linear_152_6705)"/>
<path d="M236.483 49L246.773 0.839998H259.443L270.013 27.16H270.503L276.173 0.839998H287.723L277.433 49H265.883L254.683 20.09H254.193L248.033 49H236.483ZM304.279 49.56C300.172 49.56 296.952 49.28 294.619 48.72C292.286 48.1133 290.652 47.1567 289.719 45.85C288.786 44.4967 288.319 42.7933 288.319 40.74C288.319 39.48 288.412 38.0567 288.599 36.47C288.832 34.8833 289.159 33.1333 289.579 31.22C290.232 28 290.956 25.2233 291.749 22.89C292.542 20.5567 293.592 18.6433 294.899 17.15C296.252 15.6567 298.096 14.56 300.429 13.86C302.762 13.1133 305.842 12.74 309.669 12.74C313.309 12.74 316.132 13.02 318.139 13.58C320.192 14.14 321.616 15.0033 322.409 16.17C323.249 17.3367 323.669 18.8767 323.669 20.79C323.669 21.6767 323.599 22.7033 323.459 23.87C323.319 24.99 323.109 26.18 322.829 27.44C322.596 28.6533 322.316 29.9133 321.989 31.22L321.359 33.95H300.079C299.939 34.65 299.799 35.3733 299.659 36.12C299.519 36.8667 299.449 37.4733 299.449 37.94C299.449 38.8733 299.659 39.5733 300.079 40.04C300.546 40.46 301.386 40.74 302.599 40.88C303.859 41.02 305.679 41.09 308.059 41.09C308.992 41.09 310.066 41.0667 311.279 41.02C312.539 40.9733 313.846 40.9033 315.199 40.81C316.552 40.7167 317.836 40.6233 319.049 40.53L317.439 48.37C316.412 48.6033 315.152 48.8133 313.659 49C312.212 49.1867 310.649 49.3267 308.969 49.42C307.336 49.5133 305.772 49.56 304.279 49.56ZM301.339 28.14H312.189L312.399 27.3C312.539 26.46 312.656 25.7367 312.749 25.13C312.842 24.5233 312.889 23.9867 312.889 23.52C312.889 22.7267 312.749 22.1433 312.469 21.77C312.189 21.35 311.722 21.0933 311.069 21C310.416 20.86 309.552 20.79 308.479 20.79C307.219 20.79 306.192 20.8833 305.399 21.07C304.606 21.21 303.976 21.5367 303.509 22.05C303.042 22.5633 302.646 23.31 302.319 24.29C301.992 25.27 301.666 26.5533 301.339 28.14ZM332.864 49L331.324 13.3H342.104L342.244 38.01H342.874L354.634 13.3H364.924L366.394 38.01H367.024L377.524 13.3H388.654L371.784 49H358.064L356.734 29.96H356.104L346.654 49H332.864ZM405.194 49L415.484 0.839998H427.734L417.444 49H405.194ZM449.879 49C446.612 49 443.836 48.9533 441.549 48.86C439.262 48.72 437.419 48.44 436.019 48.02C434.619 47.5533 433.592 46.8533 432.939 45.92C432.332 44.9867 432.029 43.7033 432.029 42.07C432.029 41.4633 432.052 40.8333 432.099 40.18C432.192 39.48 432.309 38.7333 432.449 37.94C432.589 37.1467 432.752 36.2833 432.939 35.35L435.879 21.63H429.299L431.049 13.3H437.629L439.799 2.94H451.209L449.039 13.3H456.949L455.199 21.63H447.289L444.349 35.49C444.302 35.7233 444.232 36.0733 444.139 36.54C444.092 37.0067 444.022 37.4733 443.929 37.94C443.836 38.4067 443.789 38.7333 443.789 38.92C443.789 39.5267 444.022 40.04 444.489 40.46C444.956 40.8333 445.726 41.09 446.799 41.23C447.919 41.3233 449.482 41.37 451.489 41.37L449.879 49ZM473.81 49.56C469.704 49.56 466.484 49.28 464.15 48.72C461.817 48.1133 460.184 47.1567 459.25 45.85C458.317 44.4967 457.85 42.7933 457.85 40.74C457.85 39.48 457.944 38.0567 458.13 36.47C458.364 34.8833 458.69 33.1333 459.11 31.22C459.764 28 460.487 25.2233 461.28 22.89C462.074 20.5567 463.124 18.6433 464.43 17.15C465.784 15.6567 467.627 14.56 469.96 13.86C472.294 13.1133 475.374 12.74 479.2 12.74C482.84 12.74 485.664 13.02 487.67 13.58C489.724 14.14 491.147 15.0033 491.94 16.17C492.78 17.3367 493.2 18.8767 493.2 20.79C493.2 21.6767 493.13 22.7033 492.99 23.87C492.85 24.99 492.64 26.18 492.36 27.44C492.127 28.6533 491.847 29.9133 491.52 31.22L490.89 33.95H469.61C469.47 34.65 469.33 35.3733 469.19 36.12C469.05 36.8667 468.98 37.4733 468.98 37.94C468.98 38.8733 469.19 39.5733 469.61 40.04C470.077 40.46 470.917 40.74 472.13 40.88C473.39 41.02 475.21 41.09 477.59 41.09C478.524 41.09 479.597 41.0667 480.81 41.02C482.07 40.9733 483.377 40.9033 484.73 40.81C486.084 40.7167 487.367 40.6233 488.58 40.53L486.97 48.37C485.944 48.6033 484.684 48.8133 483.19 49C481.744 49.1867 480.18 49.3267 478.5 49.42C476.867 49.5133 475.304 49.56 473.81 49.56ZM470.87 28.14H481.72L481.93 27.3C482.07 26.46 482.187 25.7367 482.28 25.13C482.374 24.5233 482.42 23.9867 482.42 23.52C482.42 22.7267 482.28 22.1433 482 21.77C481.72 21.35 481.254 21.0933 480.6 21C479.947 20.86 479.084 20.79 478.01 20.79C476.75 20.79 475.724 20.8833 474.93 21.07C474.137 21.21 473.507 21.5367 473.04 22.05C472.574 22.5633 472.177 23.31 471.85 24.29C471.524 25.27 471.197 26.5533 470.87 28.14ZM496.306 49L503.866 13.3H514.576L513.946 17.71H514.576C515.416 16.4967 516.372 15.54 517.446 14.84C518.519 14.14 519.686 13.6267 520.946 13.3C522.252 12.9267 523.582 12.74 524.936 12.74C527.969 12.74 530.186 13.16 531.586 14C532.986 14.7933 533.896 16.03 534.316 17.71H534.946C535.786 16.4967 536.789 15.54 537.956 14.84C539.122 14.14 540.382 13.6267 541.736 13.3C543.089 12.9267 544.489 12.74 545.936 12.74C549.529 12.74 551.956 13.3933 553.216 14.7C554.476 15.96 555.106 17.92 555.106 20.58C555.106 21.5133 554.989 22.68 554.756 24.08C554.569 25.48 554.312 26.9267 553.986 28.42L549.576 49H538.306L542.366 30.24C542.646 28.98 542.879 27.8367 543.066 26.81C543.252 25.7833 543.346 24.99 543.346 24.43C543.346 23.2633 543.066 22.54 542.506 22.26C541.946 21.9333 541.012 21.77 539.706 21.77C538.446 21.77 537.419 21.9333 536.626 22.26C535.832 22.54 535.202 23.0067 534.736 23.66C534.269 24.3133 533.849 25.2 533.476 26.32C533.149 27.44 532.822 28.84 532.496 30.52L528.506 49H517.306L521.366 30.24C521.599 28.98 521.809 27.8367 521.996 26.81C522.182 25.7833 522.276 24.99 522.276 24.43C522.276 23.2633 521.996 22.54 521.436 22.26C520.922 21.9333 520.012 21.77 518.706 21.77C517.446 21.77 516.419 21.9333 515.626 22.26C514.832 22.54 514.202 23.03 513.736 23.73C513.269 24.3833 512.872 25.27 512.546 26.39C512.219 27.51 511.869 28.8867 511.496 30.52L507.506 49H496.306Z" fill="#18191C"/>
<defs>
<linearGradient id="paint0_linear_152_6705" x1="552.115" y1="61.7105" x2="71.1554" y2="-148.399" gradientUnits="userSpaceOnUse">
<stop stop-color="#08BBE4"/>
<stop offset="1" stop-color="#54E08C"/>
</linearGradient>
</defs>
</svg>
