<svg width="28" height="28" viewBox="0 0 28 28" fill="none" xmlns="http://www.w3.org/2000/svg">
<path d="M22.9484 5.85555C22.9413 5.84169 22.9294 5.83083 22.915 5.82492C21.2471 5.05967 19.487 4.51399 17.6787 4.20153C17.6623 4.19848 17.6453 4.20068 17.6302 4.20783C17.6151 4.21498 17.6027 4.22671 17.5946 4.24135C17.3549 4.67635 17.1374 5.12317 16.9427 5.5801C14.9935 5.28421 13.0108 5.28421 11.0616 5.5801C10.8657 5.12201 10.6446 4.67508 10.3994 4.24135C10.391 4.22702 10.3785 4.21557 10.3635 4.20847C10.3485 4.20136 10.3317 4.19895 10.3153 4.20153C8.5068 4.51334 6.74658 5.05906 5.07891 5.82496C5.06463 5.83102 5.05259 5.84135 5.04443 5.85454C1.70941 10.835 0.795827 15.6929 1.244 20.4907C1.24526 20.5025 1.24888 20.5138 1.25462 20.5242C1.26037 20.5345 1.26814 20.5436 1.27747 20.5509C3.21942 21.9887 5.39152 23.0863 7.70107 23.7966C7.71733 23.8015 7.7347 23.8013 7.75083 23.796C7.76697 23.7907 7.7811 23.7806 7.79132 23.7671C8.28736 23.0921 8.72689 22.3774 9.10544 21.6302C9.11064 21.62 9.11361 21.6087 9.11415 21.5972C9.1147 21.5858 9.1128 21.5743 9.10859 21.5636C9.10437 21.5529 9.09794 21.5432 9.08972 21.5352C9.08149 21.5271 9.07165 21.5209 9.06086 21.517C8.36775 21.2518 7.69675 20.9321 7.05413 20.5609C7.04246 20.5541 7.03266 20.5444 7.02559 20.5329C7.01852 20.5213 7.0144 20.5082 7.0136 20.4947C7.0128 20.4812 7.01534 20.4677 7.021 20.4554C7.02666 20.4431 7.03526 20.4324 7.04604 20.4242C7.18126 20.3232 7.31414 20.219 7.44456 20.1119C7.456 20.1025 7.46984 20.0965 7.48453 20.0945C7.49921 20.0925 7.51416 20.0947 7.52768 20.1007C11.7377 22.0221 16.2956 22.0221 20.4558 20.1007C20.4694 20.0943 20.4845 20.0918 20.4994 20.0936C20.5143 20.0954 20.5284 20.1014 20.54 20.1109C20.6706 20.2186 20.8038 20.3231 20.9395 20.4242C20.9503 20.4323 20.959 20.4429 20.9648 20.4552C20.9705 20.4674 20.9732 20.4809 20.9725 20.4944C20.9718 20.5079 20.9677 20.5211 20.9608 20.5327C20.9538 20.5443 20.944 20.554 20.9324 20.5609C20.2913 20.9352 19.6197 21.2547 18.9247 21.516C18.9139 21.5201 18.9041 21.5264 18.896 21.5346C18.8878 21.5427 18.8814 21.5525 18.8773 21.5633C18.8732 21.5741 18.8714 21.5856 18.872 21.5972C18.8726 21.6087 18.8757 21.6199 18.881 21.6302C19.2659 22.3733 19.7048 23.0871 20.1941 23.7659C20.204 23.7798 20.2181 23.7902 20.2343 23.7957C20.2505 23.8012 20.268 23.8015 20.2844 23.7965C22.598 23.0885 24.7739 21.9909 26.7183 20.5509C26.7278 20.5439 26.7357 20.5351 26.7414 20.5249C26.7472 20.5147 26.7507 20.5034 26.7518 20.4917C27.2883 14.945 25.8535 10.1268 22.9484 5.85555ZM9.73417 17.5693C8.46665 17.5693 7.42225 16.4062 7.42225 14.9776C7.42225 13.5491 8.44639 12.3858 9.73417 12.3858C11.032 12.3858 12.0663 13.5592 12.0461 14.9775C12.0461 16.4062 11.0219 17.5693 9.73417 17.5693ZM18.282 17.5693C17.0146 17.5693 15.9702 16.4062 15.9702 14.9776C15.9702 13.5491 16.9943 12.3858 18.282 12.3858C19.58 12.3858 20.6142 13.5592 20.594 14.9775C20.594 16.4062 19.58 17.5693 18.282 17.5693Z" fill="black"/>
</svg>
