<svg width="28" height="28" viewBox="0 0 28 28" fill="none" xmlns="http://www.w3.org/2000/svg">
<path d="M25.6668 6.76691C24.7899 7.14736 23.8625 7.39885 22.9135 7.51358C23.9147 6.91545 24.665 5.97449 25.0252 4.86524C24.0843 5.42532 23.0544 5.81992 21.9802 6.03191C21.2621 5.25325 20.306 4.73492 19.2616 4.55824C18.2173 4.38155 17.1438 4.5565 16.2096 5.05563C15.2754 5.55477 14.5333 6.34986 14.0996 7.31622C13.666 8.28258 13.5653 9.36553 13.8135 10.3952C11.9112 10.299 10.0503 9.80369 8.35193 8.94142C6.65351 8.07914 5.15548 6.86922 3.95516 5.39024C3.53416 6.12544 3.31294 6.95804 3.3135 7.80525C3.312 8.59202 3.50508 9.36696 3.87554 10.0611C4.246 10.7552 4.78235 11.3469 5.43683 11.7836C4.67614 11.7629 3.9317 11.5588 3.26683 11.1886V11.2469C3.27253 12.3493 3.65882 13.4159 4.36036 14.2662C5.0619 15.1166 6.03563 15.6985 7.11683 15.9136C6.70063 16.0402 6.26852 16.107 5.8335 16.1119C5.53237 16.1084 5.23199 16.0811 4.93516 16.0302C5.24306 16.9785 5.83889 17.8073 6.63975 18.4011C7.44061 18.995 8.40667 19.3244 9.4035 19.3436C7.72023 20.6681 5.64203 21.3909 3.50016 21.3969C3.11019 21.3982 2.72052 21.3748 2.3335 21.3269C4.52033 22.7389 7.06878 23.4884 9.67183 23.4852C11.4681 23.5039 13.2502 23.1644 14.9138 22.4867C16.5774 21.8089 18.0894 20.8064 19.3612 19.5378C20.6331 18.2692 21.6395 16.7599 22.3215 15.098C23.0035 13.4361 23.3475 11.6549 23.3335 9.85858C23.3335 9.66024 23.3335 9.45025 23.3335 9.24025C24.249 8.55752 25.0385 7.72057 25.6668 6.76691Z" fill="black"/>
</svg>
