<svg width="163" height="121" viewBox="0 0 163 121" fill="none" xmlns="http://www.w3.org/2000/svg">
<path d="M85.125 12.4998C83.4583 12.4998 82 13.9582 82 15.6248C82 17.2915 83.4583 18.7498 85.125 18.7498C86.7917 18.7498 88.25 17.2915 88.25 15.6248C88.25 13.9582 86.7917 12.4998 85.125 12.4998ZM96.5833 4.1665H67.4167C63.875 4.1665 61.1667 6.87484 61.1667 10.4165V39.5832C61.1667 43.1248 63.875 45.8332 67.4167 45.8332H96.5833C100.125 45.8332 102.833 43.1248 102.833 39.5832V10.4165C102.833 6.87484 100.125 4.1665 96.5833 4.1665ZM98.6667 28.9582L94.7083 24.9998C92.2083 22.7082 88.25 22.7082 85.9583 24.9998L84.0833 26.8748L78.0417 20.8332C75.5417 18.5415 71.5833 18.5415 69.2917 20.8332L65.3333 24.7915V10.4165C65.3333 9.1665 66.1667 8.33317 67.4167 8.33317H96.5833C97.8333 8.33317 98.6667 9.1665 98.6667 10.4165V28.9582Z" fill="#E3E5E7"/>
<path d="M7.45555 81.16C6.46888 81.16 5.64221 81.1 4.97555 80.98C4.30888 80.8467 3.76221 80.6267 3.33555 80.32C2.92221 80.0133 2.60221 79.6 2.37555 79.08C2.16221 78.5467 2.01555 77.8733 1.93555 77.06C1.85555 76.2467 1.81555 75.2667 1.81555 74.12C1.81555 72.9733 1.85555 71.9933 1.93555 71.18C2.01555 70.3667 2.16221 69.7 2.37555 69.18C2.60221 68.6467 2.92221 68.2267 3.33555 67.92C3.76221 67.6133 4.30888 67.4 4.97555 67.28C5.64221 67.1467 6.46888 67.08 7.45555 67.08C7.84221 67.08 8.23555 67.0933 8.63555 67.12C9.04888 67.1467 9.44221 67.1867 9.81555 67.24C10.1889 67.28 10.5089 67.3333 10.7755 67.4V69.2C10.4422 69.16 10.1089 69.1267 9.77555 69.1C9.45555 69.06 9.14221 69.0333 8.83555 69.02C8.52888 69.0067 8.26221 69 8.03555 69C7.30221 69 6.69555 69.0267 6.21555 69.08C5.73555 69.1333 5.34888 69.2533 5.05555 69.44C4.77555 69.6267 4.56221 69.9067 4.41555 70.28C4.28221 70.64 4.18888 71.1333 4.13555 71.76C4.09555 72.3867 4.07555 73.1733 4.07555 74.12C4.07555 75.0533 4.09555 75.84 4.13555 76.48C4.18888 77.1067 4.28221 77.6067 4.41555 77.98C4.56221 78.34 4.77555 78.6133 5.05555 78.8C5.34888 78.9867 5.73555 79.1067 6.21555 79.16C6.69555 79.2133 7.30221 79.24 8.03555 79.24C8.47555 79.24 8.95555 79.22 9.47555 79.18C10.0089 79.14 10.4689 79.0933 10.8555 79.04V80.88C10.5622 80.9333 10.2155 80.98 9.81555 81.02C9.42888 81.06 9.02888 81.0933 8.61555 81.12C8.21555 81.1467 7.82888 81.16 7.45555 81.16ZM13.4804 81V66.14H15.6004V72.06H15.7404C15.9004 71.7533 16.1137 71.5 16.3804 71.3C16.6471 71.0867 16.9804 70.9267 17.3804 70.82C17.7937 70.7133 18.2937 70.66 18.8804 70.66C19.6004 70.66 20.1804 70.74 20.6204 70.9C21.0737 71.06 21.4137 71.3067 21.6404 71.64C21.8671 71.9733 22.0204 72.3867 22.1004 72.88C22.1937 73.3733 22.2404 73.9533 22.2404 74.62V81H20.1004V75.46C20.1004 74.7933 20.0737 74.2667 20.0204 73.88C19.9804 73.48 19.8871 73.1867 19.7404 73C19.5937 72.8 19.3737 72.6733 19.0804 72.62C18.8004 72.5667 18.4204 72.54 17.9404 72.54C17.4071 72.54 16.9804 72.6067 16.6604 72.74C16.3537 72.8733 16.1204 73.0733 15.9604 73.34C15.8137 73.6067 15.7137 73.94 15.6604 74.34C15.6204 74.74 15.6004 75.2067 15.6004 75.74V81H13.4804ZM29.5545 81.16C28.7011 81.16 27.9878 81.1067 27.4145 81C26.8545 80.8933 26.4078 80.7267 26.0745 80.5C25.7545 80.26 25.5145 79.94 25.3545 79.54C25.2078 79.14 25.1078 78.64 25.0545 78.04C25.0145 77.44 24.9945 76.72 24.9945 75.88C24.9945 75.0533 25.0145 74.34 25.0545 73.74C25.1078 73.14 25.2078 72.64 25.3545 72.24C25.5145 71.84 25.7545 71.5267 26.0745 71.3C26.4078 71.06 26.8545 70.8933 27.4145 70.8C27.9878 70.6933 28.7011 70.64 29.5545 70.64C30.4211 70.64 31.1345 70.6933 31.6945 70.8C32.2678 70.8933 32.7145 71.06 33.0345 71.3C33.3678 71.5267 33.6078 71.84 33.7545 72.24C33.9145 72.64 34.0145 73.14 34.0545 73.74C34.1078 74.34 34.1345 75.0533 34.1345 75.88C34.1345 76.72 34.1078 77.44 34.0545 78.04C34.0145 78.64 33.9145 79.14 33.7545 79.54C33.6078 79.94 33.3678 80.26 33.0345 80.5C32.7145 80.7267 32.2678 80.8933 31.6945 81C31.1345 81.1067 30.4211 81.16 29.5545 81.16ZM29.5545 79.38C30.1678 79.38 30.6411 79.34 30.9745 79.26C31.3078 79.18 31.5411 79.02 31.6745 78.78C31.8211 78.54 31.9078 78.1867 31.9345 77.72C31.9745 77.2533 31.9945 76.64 31.9945 75.88C31.9945 75.12 31.9745 74.5133 31.9345 74.06C31.9078 73.5933 31.8211 73.24 31.6745 73C31.5411 72.76 31.3078 72.6067 30.9745 72.54C30.6411 72.46 30.1678 72.42 29.5545 72.42C28.9545 72.42 28.4878 72.46 28.1545 72.54C27.8211 72.6067 27.5811 72.76 27.4345 73C27.3011 73.24 27.2145 73.5933 27.1745 74.06C27.1478 74.5133 27.1345 75.12 27.1345 75.88C27.1345 76.64 27.1478 77.2533 27.1745 77.72C27.2145 78.1867 27.3011 78.54 27.4345 78.78C27.5811 79.02 27.8211 79.18 28.1545 79.26C28.4878 79.34 28.9545 79.38 29.5545 79.38ZM41.0584 81.16C40.205 81.16 39.4917 81.1067 38.9184 81C38.3584 80.8933 37.9117 80.7267 37.5784 80.5C37.2584 80.26 37.0184 79.94 36.8584 79.54C36.7117 79.14 36.6117 78.64 36.5584 78.04C36.5184 77.44 36.4984 76.72 36.4984 75.88C36.4984 75.0533 36.5184 74.34 36.5584 73.74C36.6117 73.14 36.7117 72.64 36.8584 72.24C37.0184 71.84 37.2584 71.5267 37.5784 71.3C37.9117 71.06 38.3584 70.8933 38.9184 70.8C39.4917 70.6933 40.205 70.64 41.0584 70.64C41.925 70.64 42.6384 70.6933 43.1984 70.8C43.7717 70.8933 44.2184 71.06 44.5384 71.3C44.8717 71.5267 45.1117 71.84 45.2584 72.24C45.4184 72.64 45.5184 73.14 45.5584 73.74C45.6117 74.34 45.6384 75.0533 45.6384 75.88C45.6384 76.72 45.6117 77.44 45.5584 78.04C45.5184 78.64 45.4184 79.14 45.2584 79.54C45.1117 79.94 44.8717 80.26 44.5384 80.5C44.2184 80.7267 43.7717 80.8933 43.1984 81C42.6384 81.1067 41.925 81.16 41.0584 81.16ZM41.0584 79.38C41.6717 79.38 42.145 79.34 42.4784 79.26C42.8117 79.18 43.045 79.02 43.1784 78.78C43.325 78.54 43.4117 78.1867 43.4384 77.72C43.4784 77.2533 43.4984 76.64 43.4984 75.88C43.4984 75.12 43.4784 74.5133 43.4384 74.06C43.4117 73.5933 43.325 73.24 43.1784 73C43.045 72.76 42.8117 72.6067 42.4784 72.54C42.145 72.46 41.6717 72.42 41.0584 72.42C40.4584 72.42 39.9917 72.46 39.6584 72.54C39.325 72.6067 39.085 72.76 38.9384 73C38.805 73.24 38.7184 73.5933 38.6784 74.06C38.6517 74.5133 38.6384 75.12 38.6384 75.88C38.6384 76.64 38.6517 77.2533 38.6784 77.72C38.7184 78.1867 38.805 78.54 38.9384 78.78C39.085 79.02 39.325 79.18 39.6584 79.26C39.9917 79.34 40.4584 79.38 41.0584 79.38ZM51.9623 81.16C51.5623 81.16 51.1289 81.1467 50.6623 81.12C50.2089 81.0933 49.7623 81.06 49.3223 81.02C48.8823 80.98 48.4889 80.9333 48.1423 80.88V79.2C48.3689 79.2133 48.6223 79.2333 48.9023 79.26C49.1956 79.2867 49.5023 79.3067 49.8223 79.32C50.1423 79.3333 50.4556 79.3467 50.7623 79.36C51.0689 79.3733 51.3689 79.38 51.6623 79.38C52.3023 79.38 52.7623 79.34 53.0423 79.26C53.3356 79.18 53.5223 79.0467 53.6023 78.86C53.6956 78.66 53.7423 78.4067 53.7423 78.1C53.7423 77.7533 53.7089 77.5 53.6423 77.34C53.5889 77.18 53.4823 77.0733 53.3223 77.02C53.1623 76.9667 52.9156 76.92 52.5823 76.88L50.1023 76.58C49.4623 76.5133 48.9756 76.3667 48.6423 76.14C48.3223 75.9 48.1023 75.58 47.9823 75.18C47.8756 74.7667 47.8223 74.2667 47.8223 73.68C47.8223 73 47.9156 72.46 48.1023 72.06C48.3023 71.6467 48.5756 71.34 48.9223 71.14C49.2823 70.94 49.7156 70.8067 50.2223 70.74C50.7289 70.6733 51.2823 70.64 51.8823 70.64C52.2556 70.64 52.6423 70.6533 53.0423 70.68C53.4556 70.7067 53.8489 70.7467 54.2223 70.8C54.6089 70.84 54.9423 70.8867 55.2223 70.94V72.62C54.9023 72.58 54.5556 72.5467 54.1823 72.52C53.8089 72.4933 53.4356 72.4733 53.0623 72.46C52.7023 72.4333 52.3556 72.42 52.0223 72.42C51.5289 72.42 51.1223 72.4467 50.8023 72.5C50.4823 72.54 50.2423 72.6467 50.0823 72.82C49.9356 72.98 49.8623 73.26 49.8623 73.66C49.8623 73.9667 49.8823 74.2 49.9223 74.36C49.9756 74.5067 50.0756 74.6133 50.2223 74.68C50.3823 74.7333 50.6223 74.78 50.9423 74.82L53.6223 75.14C54.1289 75.1933 54.5356 75.3 54.8423 75.46C55.1623 75.6067 55.3956 75.88 55.5423 76.28C55.7023 76.6667 55.7823 77.26 55.7823 78.06C55.7823 78.7267 55.6956 79.2667 55.5223 79.68C55.3623 80.08 55.1156 80.3933 54.7823 80.62C54.4489 80.8333 54.0423 80.9733 53.5623 81.04C53.0956 81.12 52.5623 81.16 51.9623 81.16ZM62.7032 81.16C61.8365 81.16 61.1165 81.1067 60.5432 81C59.9699 80.88 59.5099 80.6933 59.1632 80.44C58.8165 80.1733 58.5565 79.84 58.3832 79.44C58.2099 79.0267 58.0965 78.5333 58.0432 77.96C57.9899 77.3733 57.9632 76.6933 57.9632 75.92C57.9632 75 58.0099 74.2067 58.1032 73.54C58.1965 72.8733 58.3899 72.3267 58.6832 71.9C58.9765 71.46 59.4299 71.14 60.0432 70.94C60.6699 70.74 61.5032 70.64 62.5432 70.64C63.3565 70.64 64.0232 70.7067 64.5432 70.84C65.0632 70.96 65.4699 71.1533 65.7632 71.42C66.0699 71.6867 66.2899 72.0333 66.4232 72.46C66.5699 72.8733 66.6632 73.3733 66.7032 73.96C66.7432 74.5333 66.7632 75.1867 66.7632 75.92V76.6H60.1032C60.1032 77.2 60.1299 77.6867 60.1832 78.06C60.2365 78.42 60.3565 78.7 60.5432 78.9C60.7432 79.0867 61.0499 79.22 61.4632 79.3C61.8899 79.3667 62.4632 79.4 63.1832 79.4C63.4899 79.4 63.8232 79.3933 64.1832 79.38C64.5565 79.3667 64.9365 79.34 65.3232 79.3C65.7099 79.26 66.0565 79.2267 66.3632 79.2V80.86C66.0699 80.9133 65.7165 80.96 65.3032 81C64.8899 81.0533 64.4565 81.0933 64.0032 81.12C63.5499 81.1467 63.1165 81.16 62.7032 81.16ZM64.7232 75.46V75.08C64.7232 74.48 64.6832 74.0067 64.6032 73.66C64.5365 73.3 64.4165 73.0333 64.2432 72.86C64.0832 72.6733 63.8565 72.5533 63.5632 72.5C63.2832 72.4333 62.9299 72.4 62.5032 72.4C61.9699 72.4 61.5432 72.44 61.2232 72.52C60.9165 72.5867 60.6832 72.72 60.5232 72.92C60.3632 73.12 60.2499 73.4 60.1832 73.76C60.1299 74.1067 60.1032 74.5667 60.1032 75.14H65.0832L64.7232 75.46ZM78.3798 85.12C77.9931 85.12 77.5864 85.1067 77.1598 85.08C76.7464 85.0667 76.3464 85.0467 75.9598 85.02C75.5864 84.9933 75.2531 84.96 74.9598 84.92V83.26C75.4398 83.2733 75.8531 83.2867 76.1998 83.3C76.5598 83.3133 76.8798 83.32 77.1598 83.32C77.4398 83.3333 77.6864 83.34 77.8998 83.34C78.6198 83.34 79.1864 83.2933 79.5998 83.2C80.0131 83.1067 80.3198 82.9467 80.5198 82.72C80.7198 82.4933 80.8398 82.18 80.8798 81.78C80.9331 81.3933 80.9598 80.9 80.9598 80.3V79.68H80.8398C80.7064 79.9733 80.5064 80.2267 80.2398 80.44C79.9864 80.64 79.6464 80.8 79.2198 80.92C78.8064 81.0267 78.2931 81.08 77.6798 81.08C76.9731 81.08 76.3931 81 75.9398 80.84C75.4998 80.6667 75.1598 80.42 74.9198 80.1C74.6931 79.7667 74.5398 79.3533 74.4598 78.86C74.3798 78.3667 74.3398 77.7933 74.3398 77.14V70.8H76.4598V76.3C76.4598 76.9667 76.4798 77.5 76.5198 77.9C76.5731 78.2867 76.6731 78.5733 76.8198 78.76C76.9664 78.9467 77.1798 79.0733 77.4598 79.14C77.7531 79.1933 78.1398 79.22 78.6198 79.22C79.1531 79.22 79.5798 79.1533 79.8998 79.02C80.2198 78.8867 80.4531 78.6867 80.5998 78.42C80.7598 78.1533 80.8598 77.82 80.8998 77.42C80.9398 77.02 80.9598 76.5533 80.9598 76.02V70.8H83.0998V79.8C83.0998 80.7467 83.0464 81.5533 82.9398 82.22C82.8464 82.9 82.6398 83.4533 82.3198 83.88C82.0131 84.3067 81.5464 84.62 80.9198 84.82C80.2931 85.02 79.4464 85.12 78.3798 85.12ZM90.4138 81.16C89.5605 81.16 88.8472 81.1067 88.2738 81C87.7138 80.8933 87.2672 80.7267 86.9338 80.5C86.6138 80.26 86.3738 79.94 86.2138 79.54C86.0672 79.14 85.9672 78.64 85.9138 78.04C85.8738 77.44 85.8538 76.72 85.8538 75.88C85.8538 75.0533 85.8738 74.34 85.9138 73.74C85.9672 73.14 86.0672 72.64 86.2138 72.24C86.3738 71.84 86.6138 71.5267 86.9338 71.3C87.2672 71.06 87.7138 70.8933 88.2738 70.8C88.8472 70.6933 89.5605 70.64 90.4138 70.64C91.2805 70.64 91.9938 70.6933 92.5538 70.8C93.1272 70.8933 93.5738 71.06 93.8938 71.3C94.2272 71.5267 94.4672 71.84 94.6138 72.24C94.7738 72.64 94.8738 73.14 94.9138 73.74C94.9672 74.34 94.9938 75.0533 94.9938 75.88C94.9938 76.72 94.9672 77.44 94.9138 78.04C94.8738 78.64 94.7738 79.14 94.6138 79.54C94.4672 79.94 94.2272 80.26 93.8938 80.5C93.5738 80.7267 93.1272 80.8933 92.5538 81C91.9938 81.1067 91.2805 81.16 90.4138 81.16ZM90.4138 79.38C91.0272 79.38 91.5005 79.34 91.8338 79.26C92.1672 79.18 92.4005 79.02 92.5338 78.78C92.6805 78.54 92.7672 78.1867 92.7938 77.72C92.8338 77.2533 92.8538 76.64 92.8538 75.88C92.8538 75.12 92.8338 74.5133 92.7938 74.06C92.7672 73.5933 92.6805 73.24 92.5338 73C92.4005 72.76 92.1672 72.6067 91.8338 72.54C91.5005 72.46 91.0272 72.42 90.4138 72.42C89.8138 72.42 89.3472 72.46 89.0138 72.54C88.6805 72.6067 88.4405 72.76 88.2938 73C88.1605 73.24 88.0738 73.5933 88.0338 74.06C88.0072 74.5133 87.9938 75.12 87.9938 75.88C87.9938 76.64 88.0072 77.2533 88.0338 77.72C88.0738 78.1867 88.1605 78.54 88.2938 78.78C88.4405 79.02 88.6805 79.18 89.0138 79.26C89.3472 79.34 89.8138 79.38 90.4138 79.38ZM101.098 81.16C100.391 81.16 99.8111 81.08 99.3577 80.92C98.9177 80.7467 98.5777 80.4933 98.3377 80.16C98.1111 79.8267 97.9577 79.4133 97.8777 78.92C97.7977 78.4267 97.7577 77.8467 97.7577 77.18V70.8H99.8777V76.34C99.8777 77.0067 99.8977 77.54 99.9377 77.94C99.9911 78.3267 100.091 78.62 100.238 78.82C100.384 79.0067 100.598 79.1267 100.878 79.18C101.171 79.2333 101.558 79.26 102.038 79.26C102.571 79.26 102.998 79.1933 103.318 79.06C103.638 78.9267 103.871 78.7267 104.018 78.46C104.178 78.1933 104.278 77.86 104.318 77.46C104.358 77.06 104.378 76.5933 104.378 76.06V70.8H106.518V81H104.558L104.478 79.64H104.338C104.191 79.96 103.978 80.2333 103.698 80.46C103.431 80.6867 103.084 80.86 102.658 80.98C102.231 81.1 101.711 81.16 101.098 81.16ZM109.672 81V70.8H111.612L111.692 72.64H111.852C112.025 72.1067 112.265 71.6933 112.572 71.4C112.878 71.1067 113.252 70.9067 113.692 70.8C114.132 70.6933 114.632 70.64 115.192 70.64V72.72C114.285 72.72 113.585 72.8533 113.092 73.12C112.612 73.3867 112.272 73.8133 112.072 74.4C111.885 74.9733 111.792 75.7267 111.792 76.66V81H109.672ZM122.354 81V67.24H124.694L130.994 76.76H131.074V67.24H133.234V81H131.074L124.594 71.18H124.514V81H122.354ZM136.904 81V67.24H145.664V69.16H139.164V73.42H144.924V75.34H139.164V81H136.904ZM151.112 81V69.22H146.932V67.24H157.532V69.22H153.372V81H151.112ZM39.3125 112V103.58H37.2725V101.8H39.3125V98.84H41.4325V101.8H43.8125V103.58H41.4325V112H39.3125ZM49.9353 112.16C49.082 112.16 48.3686 112.107 47.7953 112C47.2353 111.893 46.7886 111.727 46.4553 111.5C46.1353 111.26 45.8953 110.94 45.7353 110.54C45.5886 110.14 45.4886 109.64 45.4353 109.04C45.3953 108.44 45.3753 107.72 45.3753 106.88C45.3753 106.053 45.3953 105.34 45.4353 104.74C45.4886 104.14 45.5886 103.64 45.7353 103.24C45.8953 102.84 46.1353 102.527 46.4553 102.3C46.7886 102.06 47.2353 101.893 47.7953 101.8C48.3686 101.693 49.082 101.64 49.9353 101.64C50.802 101.64 51.5153 101.693 52.0753 101.8C52.6486 101.893 53.0953 102.06 53.4153 102.3C53.7486 102.527 53.9886 102.84 54.1353 103.24C54.2953 103.64 54.3953 104.14 54.4353 104.74C54.4886 105.34 54.5153 106.053 54.5153 106.88C54.5153 107.72 54.4886 108.44 54.4353 109.04C54.3953 109.64 54.2953 110.14 54.1353 110.54C53.9886 110.94 53.7486 111.26 53.4153 111.5C53.0953 111.727 52.6486 111.893 52.0753 112C51.5153 112.107 50.802 112.16 49.9353 112.16ZM49.9353 110.38C50.5486 110.38 51.022 110.34 51.3553 110.26C51.6886 110.18 51.922 110.02 52.0553 109.78C52.202 109.54 52.2886 109.187 52.3153 108.72C52.3553 108.253 52.3753 107.64 52.3753 106.88C52.3753 106.12 52.3553 105.513 52.3153 105.06C52.2886 104.593 52.202 104.24 52.0553 104C51.922 103.76 51.6886 103.607 51.3553 103.54C51.022 103.46 50.5486 103.42 49.9353 103.42C49.3353 103.42 48.8686 103.46 48.5353 103.54C48.202 103.607 47.962 103.76 47.8153 104C47.682 104.24 47.5953 104.593 47.5553 105.06C47.5286 105.513 47.5153 106.12 47.5153 106.88C47.5153 107.64 47.5286 108.253 47.5553 108.72C47.5953 109.187 47.682 109.54 47.8153 109.78C47.962 110.02 48.202 110.18 48.5353 110.26C48.8686 110.34 49.3353 110.38 49.9353 110.38ZM67.5634 112.16C66.6168 112.16 65.8234 112.107 65.1834 112C64.5434 111.88 64.0234 111.687 63.6234 111.42C63.2368 111.153 62.9368 110.787 62.7234 110.32C62.5234 109.84 62.3834 109.24 62.3034 108.52C62.2368 107.8 62.2034 106.933 62.2034 105.92V98.24H64.4634V106.62C64.4634 107.393 64.4901 108.02 64.5434 108.5C64.5968 108.98 64.7168 109.347 64.9034 109.6C65.0901 109.853 65.3968 110.027 65.8234 110.12C66.2501 110.2 66.8301 110.24 67.5634 110.24C68.3101 110.24 68.8901 110.2 69.3034 110.12C69.7168 110.027 70.0168 109.853 70.2034 109.6C70.4034 109.347 70.5234 108.98 70.5634 108.5C70.6168 108.02 70.6434 107.393 70.6434 106.62V98.24H72.9034V105.92C72.9034 106.933 72.8634 107.8 72.7834 108.52C72.7168 109.24 72.5834 109.84 72.3834 110.32C72.1834 110.787 71.8834 111.153 71.4834 111.42C71.0968 111.687 70.5834 111.88 69.9434 112C69.3034 112.107 68.5101 112.16 67.5634 112.16ZM76.1855 115.98V101.8H78.1455L78.2055 103.16H78.3455C78.5588 102.733 78.8321 102.413 79.1655 102.2C79.4988 101.973 79.8655 101.827 80.2655 101.76C80.6788 101.68 81.0988 101.64 81.5255 101.64C82.2055 101.64 82.7721 101.727 83.2255 101.9C83.6921 102.06 84.0655 102.34 84.3455 102.74C84.6255 103.127 84.8321 103.66 84.9655 104.34C85.0988 105.02 85.1655 105.867 85.1655 106.88C85.1655 107.907 85.0988 108.76 84.9655 109.44C84.8455 110.12 84.6455 110.66 84.3655 111.06C84.0988 111.447 83.7388 111.727 83.2855 111.9C82.8321 112.073 82.2655 112.16 81.5855 112.16C81.1055 112.16 80.6655 112.12 80.2655 112.04C79.8655 111.96 79.5121 111.827 79.2055 111.64C78.8988 111.44 78.6455 111.16 78.4455 110.8H78.3055V115.98H76.1855ZM80.6455 110.26C81.1788 110.26 81.5988 110.227 81.9055 110.16C82.2255 110.08 82.4655 109.933 82.6255 109.72C82.7855 109.493 82.8921 109.16 82.9455 108.72C82.9988 108.267 83.0255 107.66 83.0255 106.9C83.0255 106.14 82.9988 105.54 82.9455 105.1C82.8921 104.647 82.7855 104.307 82.6255 104.08C82.4655 103.853 82.2255 103.707 81.9055 103.64C81.5988 103.56 81.1788 103.52 80.6455 103.52C80.0855 103.52 79.6455 103.6 79.3255 103.76C79.0055 103.92 78.7655 104.16 78.6055 104.48C78.4721 104.76 78.3855 105.107 78.3455 105.52C78.3188 105.92 78.3055 106.38 78.3055 106.9C78.3055 107.433 78.3188 107.9 78.3455 108.3C78.3855 108.687 78.4655 109.013 78.5855 109.28C78.7455 109.627 78.9855 109.88 79.3055 110.04C79.6388 110.187 80.0855 110.26 80.6455 110.26ZM87.9238 112V97.14H90.0438V112H87.9238ZM97.3572 112.16C96.5039 112.16 95.7905 112.107 95.2172 112C94.6572 111.893 94.2105 111.727 93.8772 111.5C93.5572 111.26 93.3172 110.94 93.1572 110.54C93.0105 110.14 92.9105 109.64 92.8572 109.04C92.8172 108.44 92.7972 107.72 92.7972 106.88C92.7972 106.053 92.8172 105.34 92.8572 104.74C92.9105 104.14 93.0105 103.64 93.1572 103.24C93.3172 102.84 93.5572 102.527 93.8772 102.3C94.2105 102.06 94.6572 101.893 95.2172 101.8C95.7905 101.693 96.5039 101.64 97.3572 101.64C98.2239 101.64 98.9372 101.693 99.4972 101.8C100.071 101.893 100.517 102.06 100.837 102.3C101.171 102.527 101.411 102.84 101.557 103.24C101.717 103.64 101.817 104.14 101.857 104.74C101.911 105.34 101.937 106.053 101.937 106.88C101.937 107.72 101.911 108.44 101.857 109.04C101.817 109.64 101.717 110.14 101.557 110.54C101.411 110.94 101.171 111.26 100.837 111.5C100.517 111.727 100.071 111.893 99.4972 112C98.9372 112.107 98.2239 112.16 97.3572 112.16ZM97.3572 110.38C97.9705 110.38 98.4439 110.34 98.7772 110.26C99.1105 110.18 99.3439 110.02 99.4772 109.78C99.6239 109.54 99.7105 109.187 99.7372 108.72C99.7772 108.253 99.7972 107.64 99.7972 106.88C99.7972 106.12 99.7772 105.513 99.7372 105.06C99.7105 104.593 99.6239 104.24 99.4772 104C99.3439 103.76 99.1105 103.607 98.7772 103.54C98.4439 103.46 97.9705 103.42 97.3572 103.42C96.7572 103.42 96.2905 103.46 95.9572 103.54C95.6239 103.607 95.3839 103.76 95.2372 104C95.1039 104.24 95.0172 104.593 94.9772 105.06C94.9505 105.513 94.9372 106.12 94.9372 106.88C94.9372 107.64 94.9505 108.253 94.9772 108.72C95.0172 109.187 95.1039 109.54 95.2372 109.78C95.3839 110.02 95.6239 110.18 95.9572 110.26C96.2905 110.34 96.7572 110.38 97.3572 110.38ZM107.301 112.16C106.608 112.16 106.021 112.067 105.541 111.88C105.074 111.693 104.721 111.387 104.481 110.96C104.241 110.52 104.121 109.927 104.121 109.18C104.121 108.393 104.214 107.773 104.401 107.32C104.588 106.853 104.908 106.52 105.361 106.32C105.814 106.12 106.454 106.02 107.281 106.02C107.414 106.02 107.608 106.027 107.861 106.04C108.128 106.04 108.428 106.047 108.761 106.06C109.108 106.06 109.448 106.067 109.781 106.08C110.128 106.08 110.441 106.087 110.721 106.1V105.62C110.721 105.1 110.688 104.693 110.621 104.4C110.554 104.107 110.414 103.893 110.201 103.76C110.001 103.613 109.708 103.52 109.321 103.48C108.934 103.44 108.434 103.42 107.821 103.42C107.528 103.42 107.181 103.433 106.781 103.46C106.394 103.473 106.014 103.493 105.641 103.52C105.268 103.547 104.981 103.58 104.781 103.62V101.94C105.328 101.833 105.928 101.76 106.581 101.72C107.234 101.667 107.888 101.64 108.541 101.64C109.301 101.64 109.934 101.687 110.441 101.78C110.961 101.873 111.381 102.02 111.701 102.22C112.021 102.42 112.261 102.68 112.421 103C112.581 103.32 112.694 103.707 112.761 104.16C112.828 104.6 112.861 105.107 112.861 105.68V112H110.901L110.821 110.68H110.701C110.474 111.107 110.168 111.433 109.781 111.66C109.408 111.873 109.001 112.007 108.561 112.06C108.121 112.127 107.701 112.16 107.301 112.16ZM108.241 110.44C108.574 110.44 108.874 110.42 109.141 110.38C109.421 110.327 109.661 110.247 109.861 110.14C110.074 110.02 110.241 109.86 110.361 109.66C110.481 109.433 110.568 109.173 110.621 108.88C110.688 108.587 110.721 108.24 110.721 107.84V107.48H107.801C107.361 107.48 107.021 107.513 106.781 107.58C106.554 107.647 106.401 107.787 106.321 108C106.241 108.213 106.201 108.54 106.201 108.98C106.201 109.393 106.248 109.707 106.341 109.92C106.434 110.12 106.628 110.26 106.921 110.34C107.228 110.407 107.668 110.44 108.241 110.44ZM119.269 112.16C118.589 112.16 118.016 112.08 117.549 111.92C117.083 111.747 116.709 111.467 116.429 111.08C116.149 110.68 115.943 110.14 115.809 109.46C115.689 108.78 115.629 107.933 115.629 106.92C115.629 105.893 115.689 105.04 115.809 104.36C115.943 103.68 116.143 103.147 116.409 102.76C116.689 102.36 117.056 102.073 117.509 101.9C117.963 101.727 118.523 101.64 119.189 101.64C119.683 101.64 120.129 101.68 120.529 101.76C120.929 101.84 121.283 101.98 121.589 102.18C121.909 102.367 122.163 102.64 122.349 103H122.489V97.14H124.609V112H122.649L122.569 110.66H122.449C122.249 111.087 121.976 111.407 121.629 111.62C121.296 111.833 120.923 111.973 120.509 112.04C120.096 112.12 119.683 112.16 119.269 112.16ZM120.129 110.28C120.716 110.28 121.169 110.207 121.489 110.06C121.823 109.9 122.056 109.653 122.189 109.32C122.323 109.013 122.403 108.66 122.429 108.26C122.469 107.86 122.489 107.393 122.489 106.86C122.489 106.353 122.469 105.913 122.429 105.54C122.403 105.153 122.329 104.827 122.209 104.56C122.063 104.2 121.823 103.94 121.489 103.78C121.169 103.62 120.716 103.54 120.129 103.54C119.596 103.54 119.169 103.58 118.849 103.66C118.543 103.727 118.309 103.873 118.149 104.1C118.003 104.313 117.903 104.647 117.849 105.1C117.796 105.54 117.769 106.14 117.769 106.9C117.769 107.66 117.796 108.267 117.849 108.72C117.903 109.16 118.009 109.493 118.169 109.72C118.329 109.947 118.563 110.1 118.869 110.18C119.189 110.247 119.609 110.28 120.129 110.28Z" fill="#9499A0"/>
</svg>
