<svg width="657" height="54" viewBox="0 0 657 54" fill="none" xmlns="http://www.w3.org/2000/svg">
<path d="M0.672461 53L10.9625 4.84H23.2125L19.1525 23.74H35.3225L39.3825 4.84H51.5625L41.2725 53H29.0925L33.1525 33.89H16.9825L12.9225 53H0.672461ZM67.4268 53.56C63.2734 53.56 60.0301 53.3033 57.6968 52.79C55.3634 52.2767 53.7068 51.39 52.7268 50.13C51.7934 48.87 51.3268 47.1667 51.3268 45.02C51.3268 43.76 51.4668 42.3367 51.7468 40.75C52.0268 39.1167 52.3768 37.25 52.7968 35.15C53.4501 32.1633 54.0568 29.62 54.6168 27.52C55.1768 25.42 55.8534 23.67 56.6468 22.27C57.4868 20.87 58.5368 19.7733 59.7968 18.98C61.1034 18.14 62.7834 17.5567 64.8368 17.23C66.9368 16.9033 69.5268 16.74 72.6068 16.74C76.7601 16.74 79.9801 16.9967 82.2668 17.51C84.6001 18.0233 86.2334 18.91 87.1668 20.17C88.1468 21.43 88.6368 23.1567 88.6368 25.35C88.6368 26.61 88.5201 28.0567 88.2868 29.69C88.1001 31.2767 87.7734 33.0967 87.3068 35.15C86.6534 38.1367 86.0234 40.68 85.4168 42.78C84.8101 44.88 84.1101 46.63 83.3168 48.03C82.5234 49.43 81.4734 50.55 80.1668 51.39C78.9068 52.1833 77.2268 52.7433 75.1268 53.07C73.0734 53.3967 70.5068 53.56 67.4268 53.56ZM67.9168 45.23C69.1301 45.23 70.1334 45.1833 70.9268 45.09C71.7201 44.95 72.3501 44.6933 72.8168 44.32C73.3301 43.9467 73.7501 43.41 74.0768 42.71C74.4501 41.9633 74.7768 40.9833 75.0568 39.77C75.3834 38.51 75.7334 36.97 76.1068 35.15C76.4801 33.4233 76.7601 31.9767 76.9468 30.81C77.1334 29.6433 77.2268 28.6867 77.2268 27.94C77.2268 27.1 77.0634 26.4933 76.7368 26.12C76.4101 25.7 75.8734 25.42 75.1268 25.28C74.3801 25.14 73.3768 25.07 72.1168 25.07C70.6234 25.07 69.4334 25.1633 68.5468 25.35C67.6601 25.5367 66.9834 25.98 66.5168 26.68C66.0501 27.38 65.6301 28.4067 65.2568 29.76C64.9301 31.0667 64.5101 32.8633 63.9968 35.15C63.6701 36.9233 63.3901 38.3933 63.1568 39.56C62.9234 40.7267 62.8068 41.6833 62.8068 42.43C62.8068 43.2233 62.9701 43.83 63.2968 44.25C63.6234 44.67 64.1601 44.95 64.9068 45.09C65.6534 45.1833 66.6568 45.23 67.9168 45.23ZM97.0537 53L95.5137 17.3H106.294L106.434 42.01H107.064L118.824 17.3H129.114L130.584 42.01H131.214L141.714 17.3H152.844L135.974 53H122.254L120.924 33.96H120.294L110.844 53H97.0537ZM180.583 53.56C178.157 53.56 176.15 53.3033 174.563 52.79C173.023 52.23 171.88 51.2733 171.133 49.92C170.433 48.5667 170.083 46.6767 170.083 44.25C170.083 43.0833 170.153 41.73 170.293 40.19C170.48 38.6033 170.783 36.8533 171.203 34.94C171.95 31.3933 172.743 28.4533 173.583 26.12C174.47 23.74 175.473 21.8733 176.593 20.52C177.76 19.12 179.113 18.14 180.653 17.58C182.193 17.02 183.99 16.74 186.043 16.74C187.723 16.74 189.24 16.8567 190.593 17.09C191.993 17.3233 193.207 17.7667 194.233 18.42C195.26 19.0733 196.03 20.03 196.543 21.29H197.103L201.373 0.989998H212.643L201.583 53H190.873L191.573 48.59H190.943C190.103 49.99 189.1 51.0633 187.933 51.81C186.813 52.51 185.623 52.9767 184.363 53.21C183.103 53.4433 181.843 53.56 180.583 53.56ZM186.393 44.6C187.467 44.6 188.353 44.5067 189.053 44.32C189.8 44.1333 190.407 43.83 190.873 43.41C191.387 42.99 191.807 42.4533 192.133 41.8C192.367 41.2867 192.623 40.6333 192.903 39.84C193.183 39 193.44 38.1133 193.673 37.18C193.907 36.2 194.14 35.22 194.373 34.24C194.607 33.26 194.77 32.3267 194.863 31.44C195.003 30.5533 195.073 29.83 195.073 29.27C195.073 27.9167 194.723 26.9833 194.023 26.47C193.37 25.9567 192.133 25.7 190.313 25.7C188.96 25.7 187.863 25.7933 187.023 25.98C186.23 26.1667 185.577 26.5633 185.063 27.17C184.55 27.7767 184.107 28.71 183.733 29.97C183.36 31.23 182.917 32.9567 182.403 35.15C182.077 36.6433 181.82 37.9267 181.633 39C181.493 40.0267 181.423 40.89 181.423 41.59C181.423 42.4767 181.587 43.13 181.913 43.55C182.24 43.97 182.777 44.25 183.523 44.39C184.27 44.53 185.227 44.6 186.393 44.6ZM227.319 53.56C223.166 53.56 219.923 53.3033 217.589 52.79C215.256 52.2767 213.599 51.39 212.619 50.13C211.686 48.87 211.219 47.1667 211.219 45.02C211.219 43.76 211.359 42.3367 211.639 40.75C211.919 39.1167 212.269 37.25 212.689 35.15C213.343 32.1633 213.949 29.62 214.509 27.52C215.069 25.42 215.746 23.67 216.539 22.27C217.379 20.87 218.429 19.7733 219.689 18.98C220.996 18.14 222.676 17.5567 224.729 17.23C226.829 16.9033 229.419 16.74 232.499 16.74C236.653 16.74 239.873 16.9967 242.159 17.51C244.493 18.0233 246.126 18.91 247.059 20.17C248.039 21.43 248.529 23.1567 248.529 25.35C248.529 26.61 248.413 28.0567 248.179 29.69C247.993 31.2767 247.666 33.0967 247.199 35.15C246.546 38.1367 245.916 40.68 245.309 42.78C244.703 44.88 244.003 46.63 243.209 48.03C242.416 49.43 241.366 50.55 240.059 51.39C238.799 52.1833 237.119 52.7433 235.019 53.07C232.966 53.3967 230.399 53.56 227.319 53.56ZM227.809 45.23C229.023 45.23 230.026 45.1833 230.819 45.09C231.613 44.95 232.243 44.6933 232.709 44.32C233.223 43.9467 233.643 43.41 233.969 42.71C234.343 41.9633 234.669 40.9833 234.949 39.77C235.276 38.51 235.626 36.97 235.999 35.15C236.373 33.4233 236.653 31.9767 236.839 30.81C237.026 29.6433 237.119 28.6867 237.119 27.94C237.119 27.1 236.956 26.4933 236.629 26.12C236.303 25.7 235.766 25.42 235.019 25.28C234.273 25.14 233.269 25.07 232.009 25.07C230.516 25.07 229.326 25.1633 228.439 25.35C227.553 25.5367 226.876 25.98 226.409 26.68C225.943 27.38 225.523 28.4067 225.149 29.76C224.823 31.0667 224.403 32.8633 223.889 35.15C223.563 36.9233 223.283 38.3933 223.049 39.56C222.816 40.7267 222.699 41.6833 222.699 42.43C222.699 43.2233 222.863 43.83 223.189 44.25C223.516 44.67 224.053 44.95 224.799 45.09C225.546 45.1833 226.549 45.23 227.809 45.23ZM268.146 53.56C264.04 53.56 260.82 53.28 258.486 52.72C256.153 52.1133 254.52 51.1567 253.586 49.85C252.653 48.4967 252.186 46.7933 252.186 44.74C252.186 43.48 252.28 42.0567 252.466 40.47C252.7 38.8833 253.026 37.1333 253.446 35.22C254.1 32 254.823 29.2233 255.616 26.89C256.41 24.5567 257.46 22.6433 258.766 21.15C260.12 19.6567 261.963 18.56 264.296 17.86C266.63 17.1133 269.71 16.74 273.536 16.74C277.176 16.74 280 17.02 282.006 17.58C284.06 18.14 285.483 19.0033 286.276 20.17C287.116 21.3367 287.536 22.8767 287.536 24.79C287.536 25.6767 287.466 26.7033 287.326 27.87C287.186 28.99 286.976 30.18 286.696 31.44C286.463 32.6533 286.183 33.9133 285.856 35.22L285.226 37.95H263.946C263.806 38.65 263.666 39.3733 263.526 40.12C263.386 40.8667 263.316 41.4733 263.316 41.94C263.316 42.8733 263.526 43.5733 263.946 44.04C264.413 44.46 265.253 44.74 266.466 44.88C267.726 45.02 269.546 45.09 271.926 45.09C272.86 45.09 273.933 45.0667 275.146 45.02C276.406 44.9733 277.713 44.9033 279.066 44.81C280.42 44.7167 281.703 44.6233 282.916 44.53L281.306 52.37C280.28 52.6033 279.02 52.8133 277.526 53C276.08 53.1867 274.516 53.3267 272.836 53.42C271.203 53.5133 269.64 53.56 268.146 53.56ZM265.206 32.14H276.056L276.266 31.3C276.406 30.46 276.523 29.7367 276.616 29.13C276.71 28.5233 276.756 27.9867 276.756 27.52C276.756 26.7267 276.616 26.1433 276.336 25.77C276.056 25.35 275.59 25.0933 274.936 25C274.283 24.86 273.42 24.79 272.346 24.79C271.086 24.79 270.06 24.8833 269.266 25.07C268.473 25.21 267.843 25.5367 267.376 26.05C266.91 26.5633 266.513 27.31 266.186 28.29C265.86 29.27 265.533 30.5533 265.206 32.14ZM305.341 53.56C303.755 53.56 302.051 53.5133 300.231 53.42C298.411 53.3267 296.638 53.21 294.911 53.07C293.231 52.93 291.738 52.79 290.431 52.65L291.971 44.95C292.951 44.9967 293.931 45.0667 294.911 45.16C295.891 45.2533 296.848 45.3233 297.781 45.37C298.761 45.4167 299.671 45.4633 300.511 45.51C301.398 45.51 302.238 45.51 303.031 45.51C304.758 45.51 306.111 45.44 307.091 45.3C308.118 45.16 308.888 44.9267 309.401 44.6C309.961 44.2267 310.405 43.7133 310.731 43.06C310.965 42.78 311.128 42.4767 311.221 42.15C311.361 41.8233 311.431 41.4733 311.431 41.1C311.431 40.54 311.175 40.1667 310.661 39.98C310.195 39.7933 309.285 39.63 307.931 39.49L299.181 38.3C297.221 38.02 295.845 37.39 295.051 36.41C294.258 35.43 293.861 34.1 293.861 32.42C293.861 31.8133 293.931 31.0667 294.071 30.18C294.211 29.2467 294.375 28.29 294.561 27.31C295.121 24.8833 295.868 22.97 296.801 21.57C297.735 20.1233 298.901 19.0733 300.301 18.42C301.701 17.72 303.335 17.2767 305.201 17.09C307.115 16.8567 309.261 16.74 311.641 16.74C313.181 16.74 314.768 16.7867 316.401 16.88C318.081 16.9733 319.668 17.09 321.161 17.23C322.655 17.37 323.891 17.5333 324.871 17.72L323.261 25.42C322.001 25.28 320.741 25.1633 319.481 25.07C318.221 24.9767 317.031 24.9067 315.911 24.86C314.838 24.8133 313.881 24.79 313.041 24.79C311.688 24.79 310.498 24.8133 309.471 24.86C308.491 24.9067 307.651 25.07 306.951 25.35C306.298 25.5833 305.808 26.0033 305.481 26.61C305.248 26.89 305.061 27.2167 304.921 27.59C304.781 27.9633 304.711 28.4067 304.711 28.92C304.711 29.48 304.921 29.8533 305.341 30.04C305.808 30.18 306.671 30.32 307.931 30.46L316.191 31.65C317.405 31.79 318.478 32.07 319.411 32.49C320.345 32.8633 321.045 33.4467 321.511 34.24C322.025 35.0333 322.281 36.2 322.281 37.74C322.281 38.2533 322.235 38.93 322.141 39.77C322.048 40.5633 321.885 41.4267 321.651 42.36C321.138 44.9267 320.415 46.98 319.481 48.52C318.595 50.0133 317.475 51.11 316.121 51.81C314.815 52.51 313.251 52.9767 311.431 53.21C309.658 53.4433 307.628 53.56 305.341 53.56ZM354.017 9.88L355.907 0.989998H367.457L365.637 9.88H354.017ZM345.057 53L352.547 17.3H363.957L356.397 53H345.057ZM388.112 53C384.845 53 382.068 52.9533 379.782 52.86C377.495 52.72 375.652 52.44 374.252 52.02C372.852 51.5533 371.825 50.8533 371.172 49.92C370.565 48.9867 370.262 47.7033 370.262 46.07C370.262 45.4633 370.285 44.8333 370.332 44.18C370.425 43.48 370.542 42.7333 370.682 41.94C370.822 41.1467 370.985 40.2833 371.172 39.35L374.112 25.63H367.532L369.282 17.3H375.862L378.032 6.94H389.442L387.272 17.3H395.182L393.432 25.63H385.522L382.582 39.49C382.535 39.7233 382.465 40.0733 382.372 40.54C382.325 41.0067 382.255 41.4733 382.162 41.94C382.068 42.4067 382.022 42.7333 382.022 42.92C382.022 43.5267 382.255 44.04 382.722 44.46C383.188 44.8333 383.958 45.09 385.032 45.23C386.152 45.3233 387.715 45.37 389.722 45.37L388.112 53ZM418.89 53L417.35 17.3H428.13L428.27 42.01H428.9L440.66 17.3H450.95L452.42 42.01H453.05L463.55 17.3H474.68L457.81 53H444.09L442.76 33.96H442.13L432.68 53H418.89ZM489.272 53.56C485.119 53.56 481.876 53.3033 479.542 52.79C477.209 52.2767 475.552 51.39 474.572 50.13C473.639 48.87 473.172 47.1667 473.172 45.02C473.172 43.76 473.312 42.3367 473.592 40.75C473.872 39.1167 474.222 37.25 474.642 35.15C475.296 32.1633 475.902 29.62 476.462 27.52C477.022 25.42 477.699 23.67 478.492 22.27C479.332 20.87 480.382 19.7733 481.642 18.98C482.949 18.14 484.629 17.5567 486.682 17.23C488.782 16.9033 491.372 16.74 494.452 16.74C498.606 16.74 501.826 16.9967 504.112 17.51C506.446 18.0233 508.079 18.91 509.012 20.17C509.992 21.43 510.482 23.1567 510.482 25.35C510.482 26.61 510.366 28.0567 510.132 29.69C509.946 31.2767 509.619 33.0967 509.152 35.15C508.499 38.1367 507.869 40.68 507.262 42.78C506.656 44.88 505.956 46.63 505.162 48.03C504.369 49.43 503.319 50.55 502.012 51.39C500.752 52.1833 499.072 52.7433 496.972 53.07C494.919 53.3967 492.352 53.56 489.272 53.56ZM489.762 45.23C490.976 45.23 491.979 45.1833 492.772 45.09C493.566 44.95 494.196 44.6933 494.662 44.32C495.176 43.9467 495.596 43.41 495.922 42.71C496.296 41.9633 496.622 40.9833 496.902 39.77C497.229 38.51 497.579 36.97 497.952 35.15C498.326 33.4233 498.606 31.9767 498.792 30.81C498.979 29.6433 499.072 28.6867 499.072 27.94C499.072 27.1 498.909 26.4933 498.582 26.12C498.256 25.7 497.719 25.42 496.972 25.28C496.226 25.14 495.222 25.07 493.962 25.07C492.469 25.07 491.279 25.1633 490.392 25.35C489.506 25.5367 488.829 25.98 488.362 26.68C487.896 27.38 487.476 28.4067 487.102 29.76C486.776 31.0667 486.356 32.8633 485.842 35.15C485.516 36.9233 485.236 38.3933 485.002 39.56C484.769 40.7267 484.652 41.6833 484.652 42.43C484.652 43.2233 484.816 43.83 485.142 44.25C485.469 44.67 486.006 44.95 486.752 45.09C487.499 45.1833 488.502 45.23 489.762 45.23ZM512.809 53L520.369 17.3H531.079L530.029 23.67H530.589C531.663 21.7567 532.783 20.31 533.949 19.33C535.116 18.35 536.469 17.6733 538.009 17.3C539.596 16.9267 541.439 16.74 543.539 16.74L541.369 26.89C538.943 26.89 536.889 27.1233 535.209 27.59C533.576 28.01 532.246 28.7333 531.219 29.76C530.193 30.74 529.329 32.07 528.629 33.75C527.976 35.3833 527.393 37.4367 526.879 39.91L524.009 53H512.809ZM542.001 53L552.921 0.989998H564.191L557.751 31.16H560.061L572.591 17.3H584.981L568.461 34.94L577.771 53H565.521L558.521 39.07H556.141L553.201 53H542.001ZM598.261 53.56C596.675 53.56 594.971 53.5133 593.151 53.42C591.331 53.3267 589.558 53.21 587.831 53.07C586.151 52.93 584.658 52.79 583.351 52.65L584.891 44.95C585.871 44.9967 586.851 45.0667 587.831 45.16C588.811 45.2533 589.768 45.3233 590.701 45.37C591.681 45.4167 592.591 45.4633 593.431 45.51C594.318 45.51 595.158 45.51 595.951 45.51C597.678 45.51 599.031 45.44 600.011 45.3C601.038 45.16 601.808 44.9267 602.321 44.6C602.881 44.2267 603.325 43.7133 603.651 43.06C603.885 42.78 604.048 42.4767 604.141 42.15C604.281 41.8233 604.351 41.4733 604.351 41.1C604.351 40.54 604.095 40.1667 603.581 39.98C603.115 39.7933 602.205 39.63 600.851 39.49L592.101 38.3C590.141 38.02 588.765 37.39 587.971 36.41C587.178 35.43 586.781 34.1 586.781 32.42C586.781 31.8133 586.851 31.0667 586.991 30.18C587.131 29.2467 587.295 28.29 587.481 27.31C588.041 24.8833 588.788 22.97 589.721 21.57C590.655 20.1233 591.821 19.0733 593.221 18.42C594.621 17.72 596.255 17.2767 598.121 17.09C600.035 16.8567 602.181 16.74 604.561 16.74C606.101 16.74 607.688 16.7867 609.321 16.88C611.001 16.9733 612.588 17.09 614.081 17.23C615.575 17.37 616.811 17.5333 617.791 17.72L616.181 25.42C614.921 25.28 613.661 25.1633 612.401 25.07C611.141 24.9767 609.951 24.9067 608.831 24.86C607.758 24.8133 606.801 24.79 605.961 24.79C604.608 24.79 603.418 24.8133 602.391 24.86C601.411 24.9067 600.571 25.07 599.871 25.35C599.218 25.5833 598.728 26.0033 598.401 26.61C598.168 26.89 597.981 27.2167 597.841 27.59C597.701 27.9633 597.631 28.4067 597.631 28.92C597.631 29.48 597.841 29.8533 598.261 30.04C598.728 30.18 599.591 30.32 600.851 30.46L609.111 31.65C610.325 31.79 611.398 32.07 612.331 32.49C613.265 32.8633 613.965 33.4467 614.431 34.24C614.945 35.0333 615.201 36.2 615.201 37.74C615.201 38.2533 615.155 38.93 615.061 39.77C614.968 40.5633 614.805 41.4267 614.571 42.36C614.058 44.9267 613.335 46.98 612.401 48.52C611.515 50.0133 610.395 51.11 609.041 51.81C607.735 52.51 606.171 52.9767 604.351 53.21C602.578 53.4433 600.548 53.56 598.261 53.56ZM629.45 36.83L630.5 32.21C630.92 30.2967 631.41 28.8033 631.97 27.73C632.577 26.61 633.324 25.77 634.21 25.21C635.144 24.6033 636.264 24.1133 637.57 23.74L639.67 23.04C640.324 22.8533 640.884 22.6667 641.35 22.48C641.864 22.2467 642.307 21.9667 642.68 21.64C643.054 21.3133 643.38 20.87 643.66 20.31C643.94 19.75 644.174 19.05 644.36 18.21C644.454 17.79 644.524 17.4167 644.57 17.09C644.617 16.7633 644.64 16.4133 644.64 16.04C644.64 15.2 644.43 14.6167 644.01 14.29C643.59 13.9167 642.937 13.6833 642.05 13.59C641.21 13.4967 640.114 13.45 638.76 13.45C638.014 13.45 637.104 13.4733 636.03 13.52C635.004 13.5667 633.93 13.6367 632.81 13.73C631.69 13.7767 630.617 13.8467 629.59 13.94C628.564 14.0333 627.677 14.1267 626.93 14.22L628.75 5.54C630.01 5.30666 631.434 5.09666 633.02 4.91C634.607 4.67666 636.24 4.51333 637.92 4.42C639.6 4.32666 641.14 4.28 642.54 4.28C644.594 4.28 646.484 4.39666 648.21 4.63C649.937 4.81666 651.454 5.21333 652.76 5.82C654.067 6.42667 655.07 7.33666 655.77 8.55C656.47 9.76333 656.82 11.3967 656.82 13.45C656.82 14.0567 656.774 14.7333 656.68 15.48C656.634 16.2267 656.517 17.02 656.33 17.86C655.864 19.8667 655.327 21.5233 654.72 22.83C654.16 24.09 653.484 25.1167 652.69 25.91C651.897 26.6567 650.964 27.2867 649.89 27.8C648.864 28.2667 647.65 28.6867 646.25 29.06L644.43 29.62C643.264 29.9933 642.4 30.32 641.84 30.6C641.28 30.88 640.884 31.3 640.65 31.86C640.417 32.3733 640.16 33.2833 639.88 34.59L639.39 36.83H629.45ZM625.18 53L627.28 42.99H639.11L637.01 53H625.18Z" fill="#18191C"/>
</svg>
