<svg width="1085" height="107" viewBox="0 0 1085 107" fill="none" xmlns="http://www.w3.org/2000/svg">
<path d="M0.314531 45L22.6345 3.72H36.8545L41.5945 45H31.3945L30.4345 36.84H15.2545L10.8145 45H0.314531ZM18.9145 29.16H29.8945L28.1545 12.72H27.7345L18.9145 29.16ZM71.5266 45.48C69.4466 45.48 67.7266 45.26 66.3666 44.82C65.0466 44.34 64.0666 43.52 63.4266 42.36C62.8266 41.2 62.5266 39.58 62.5266 37.5C62.5266 36.5 62.5866 35.34 62.7066 34.02C62.8666 32.66 63.1266 31.16 63.4866 29.52C64.1266 26.48 64.8066 23.96 65.5266 21.96C66.2866 19.92 67.1466 18.32 68.1066 17.16C69.1066 15.96 70.2666 15.12 71.5866 14.64C72.9066 14.16 74.4466 13.92 76.2066 13.92C77.6466 13.92 78.9466 14.02 80.1066 14.22C81.3066 14.42 82.3466 14.8 83.2266 15.36C84.1066 15.92 84.7666 16.74 85.2066 17.82H85.6866L89.3466 0.419998H99.0066L89.5266 45H80.3466L80.9466 41.22H80.4066C79.6866 42.42 78.8266 43.34 77.8266 43.98C76.8666 44.58 75.8466 44.98 74.7666 45.18C73.6866 45.38 72.6066 45.48 71.5266 45.48ZM76.5066 37.8C77.4266 37.8 78.1866 37.72 78.7866 37.56C79.4266 37.4 79.9466 37.14 80.3466 36.78C80.7866 36.42 81.1466 35.96 81.4266 35.4C81.6266 34.96 81.8466 34.4 82.0866 33.72C82.3266 33 82.5466 32.24 82.7466 31.44C82.9466 30.6 83.1466 29.76 83.3466 28.92C83.5466 28.08 83.6866 27.28 83.7666 26.52C83.8866 25.76 83.9466 25.14 83.9466 24.66C83.9466 23.5 83.6466 22.7 83.0466 22.26C82.4866 21.82 81.4266 21.6 79.8666 21.6C78.7066 21.6 77.7666 21.68 77.0466 21.84C76.3666 22 75.8066 22.34 75.3666 22.86C74.9266 23.38 74.5466 24.18 74.2266 25.26C73.9066 26.34 73.5266 27.82 73.0866 29.7C72.8066 30.98 72.5866 32.08 72.4266 33C72.3066 33.88 72.2466 34.62 72.2466 35.22C72.2466 35.98 72.3866 36.54 72.6666 36.9C72.9466 37.26 73.4066 37.5 74.0466 37.62C74.6866 37.74 75.5066 37.8 76.5066 37.8ZM112.186 45.48C108.666 45.48 105.906 45.24 103.906 44.76C101.906 44.24 100.506 43.42 99.7059 42.3C98.9059 41.14 98.5059 39.68 98.5059 37.92C98.5059 36.84 98.5859 35.62 98.7459 34.26C98.9459 32.9 99.2259 31.4 99.5859 29.76C100.146 27 100.766 24.62 101.446 22.62C102.126 20.62 103.026 18.98 104.146 17.7C105.306 16.42 106.886 15.48 108.886 14.88C110.886 14.24 113.526 13.92 116.806 13.92C119.926 13.92 122.346 14.16 124.066 14.64C125.826 15.12 127.046 15.86 127.726 16.86C128.446 17.86 128.806 19.18 128.806 20.82C128.806 21.58 128.746 22.46 128.626 23.46C128.506 24.42 128.326 25.44 128.086 26.52C127.886 27.56 127.646 28.64 127.366 29.76L126.826 32.1H108.586C108.466 32.7 108.346 33.32 108.226 33.96C108.106 34.6 108.046 35.12 108.046 35.52C108.046 36.32 108.226 36.92 108.586 37.32C108.986 37.68 109.706 37.92 110.746 38.04C111.826 38.16 113.386 38.22 115.426 38.22C116.226 38.22 117.146 38.2 118.186 38.16C119.266 38.12 120.386 38.06 121.546 37.98C122.706 37.9 123.806 37.82 124.846 37.74L123.466 44.46C122.586 44.66 121.506 44.84 120.226 45C118.986 45.16 117.646 45.28 116.206 45.36C114.806 45.44 113.466 45.48 112.186 45.48ZM109.666 27.12H118.966L119.146 26.4C119.266 25.68 119.366 25.06 119.446 24.54C119.526 24.02 119.566 23.56 119.566 23.16C119.566 22.48 119.446 21.98 119.206 21.66C118.966 21.3 118.566 21.08 118.006 21C117.446 20.88 116.706 20.82 115.786 20.82C114.706 20.82 113.826 20.9 113.146 21.06C112.466 21.18 111.926 21.46 111.526 21.9C111.126 22.34 110.786 22.98 110.506 23.82C110.226 24.66 109.946 25.76 109.666 27.12ZM144.668 45.48C141.508 45.48 139.028 45.18 137.228 44.58C135.468 43.94 134.228 43 133.508 41.76C132.788 40.52 132.428 39.04 132.428 37.32C132.428 36.44 132.528 35.3 132.728 33.9C132.928 32.46 133.208 30.9 133.568 29.22C134.048 26.82 134.588 24.68 135.188 22.8C135.828 20.88 136.668 19.26 137.708 17.94C138.788 16.62 140.228 15.62 142.028 14.94C143.868 14.26 146.288 13.92 149.288 13.92C151.128 13.92 152.948 14 154.748 14.16C156.548 14.32 158.188 14.56 159.668 14.88L158.168 21.54C157.408 21.42 156.388 21.32 155.108 21.24C153.868 21.12 152.668 21.06 151.508 21.06C150.068 21.06 148.888 21.18 147.968 21.42C147.088 21.62 146.368 22.04 145.808 22.68C145.248 23.28 144.788 24.16 144.428 25.32C144.068 26.44 143.688 27.9 143.288 29.7C143.048 30.9 142.848 31.94 142.688 32.82C142.528 33.7 142.448 34.46 142.448 35.1C142.448 35.98 142.628 36.66 142.988 37.14C143.348 37.58 143.928 37.9 144.728 38.1C145.528 38.26 146.588 38.34 147.908 38.34C148.908 38.34 150.068 38.3 151.388 38.22C152.708 38.1 153.908 37.96 154.988 37.8L153.608 44.46C152.248 44.78 150.788 45.02 149.228 45.18C147.668 45.38 146.148 45.48 144.668 45.48ZM174.647 45.48C171.127 45.48 168.367 45.24 166.367 44.76C164.367 44.24 162.967 43.42 162.167 42.3C161.367 41.14 160.967 39.68 160.967 37.92C160.967 36.84 161.047 35.62 161.207 34.26C161.407 32.9 161.687 31.4 162.047 29.76C162.607 27 163.227 24.62 163.907 22.62C164.587 20.62 165.487 18.98 166.607 17.7C167.767 16.42 169.347 15.48 171.347 14.88C173.347 14.24 175.987 13.92 179.267 13.92C182.387 13.92 184.807 14.16 186.527 14.64C188.287 15.12 189.507 15.86 190.187 16.86C190.907 17.86 191.267 19.18 191.267 20.82C191.267 21.58 191.207 22.46 191.087 23.46C190.967 24.42 190.787 25.44 190.547 26.52C190.347 27.56 190.107 28.64 189.827 29.76L189.287 32.1H171.047C170.927 32.7 170.807 33.32 170.687 33.96C170.567 34.6 170.507 35.12 170.507 35.52C170.507 36.32 170.687 36.92 171.047 37.32C171.447 37.68 172.167 37.92 173.207 38.04C174.287 38.16 175.847 38.22 177.887 38.22C178.687 38.22 179.607 38.2 180.647 38.16C181.727 38.12 182.847 38.06 184.007 37.98C185.167 37.9 186.267 37.82 187.307 37.74L185.927 44.46C185.047 44.66 183.967 44.84 182.687 45C181.447 45.16 180.107 45.28 178.667 45.36C177.267 45.44 175.927 45.48 174.647 45.48ZM172.127 27.12H181.427L181.607 26.4C181.727 25.68 181.827 25.06 181.907 24.54C181.987 24.02 182.027 23.56 182.027 23.16C182.027 22.48 181.907 21.98 181.667 21.66C181.427 21.3 181.027 21.08 180.467 21C179.907 20.88 179.167 20.82 178.247 20.82C177.167 20.82 176.287 20.9 175.607 21.06C174.927 21.18 174.387 21.46 173.987 21.9C173.587 22.34 173.247 22.98 172.967 23.82C172.687 24.66 172.407 25.76 172.127 27.12ZM193.928 45L200.408 14.4H209.588L209.048 18.18H209.588C210.308 17.14 211.128 16.32 212.048 15.72C213.008 15.12 214.068 14.68 215.228 14.4C216.388 14.08 217.588 13.92 218.828 13.92C221.028 13.92 222.728 14.18 223.928 14.7C225.168 15.18 226.028 15.92 226.508 16.92C226.988 17.92 227.228 19.2 227.228 20.76C227.228 21.52 227.148 22.5 226.988 23.7C226.828 24.86 226.608 26.06 226.328 27.3L222.548 45H212.948L216.368 28.92C216.568 27.88 216.748 26.94 216.908 26.1C217.068 25.22 217.148 24.54 217.148 24.06C217.148 23.38 217.008 22.88 216.728 22.56C216.488 22.2 216.108 21.96 215.588 21.84C215.068 21.72 214.368 21.66 213.488 21.66C212.328 21.66 211.388 21.8 210.668 22.08C209.948 22.32 209.368 22.74 208.928 23.34C208.488 23.9 208.128 24.66 207.848 25.62C207.568 26.58 207.268 27.76 206.948 29.16L203.528 45H193.928ZM249.701 45C246.901 45 244.521 44.96 242.561 44.88C240.601 44.76 239.021 44.52 237.821 44.16C236.621 43.76 235.741 43.16 235.181 42.36C234.661 41.56 234.401 40.46 234.401 39.06C234.401 38.54 234.421 38 234.461 37.44C234.541 36.84 234.641 36.2 234.761 35.52C234.881 34.84 235.021 34.1 235.181 33.3L237.701 21.54H232.061L233.561 14.4H239.201L241.061 5.52H250.841L248.981 14.4H255.761L254.261 21.54H247.481L244.961 33.42C244.921 33.62 244.861 33.92 244.781 34.32C244.741 34.72 244.681 35.12 244.601 35.52C244.521 35.92 244.481 36.2 244.481 36.36C244.481 36.88 244.681 37.32 245.081 37.68C245.481 38 246.141 38.22 247.061 38.34C248.021 38.42 249.361 38.46 251.081 38.46L249.701 45ZM255.393 45L261.873 14.4H271.053L270.153 19.86H270.633C271.553 18.22 272.513 16.98 273.513 16.14C274.513 15.3 275.673 14.72 276.993 14.4C278.353 14.08 279.933 13.92 281.733 13.92L279.873 22.62C277.793 22.62 276.033 22.82 274.593 23.22C273.193 23.58 272.053 24.2 271.173 25.08C270.293 25.92 269.553 27.06 268.953 28.5C268.393 29.9 267.893 31.66 267.453 33.78L264.993 45H255.393ZM290.314 45.48C288.234 45.48 286.514 45.26 285.154 44.82C283.834 44.34 282.854 43.52 282.214 42.36C281.574 41.2 281.254 39.58 281.254 37.5C281.254 36.5 281.334 35.34 281.494 34.02C281.654 32.66 281.894 31.16 282.214 29.52C282.854 26.48 283.534 23.96 284.254 21.96C285.014 19.92 285.894 18.32 286.894 17.16C287.894 15.96 289.034 15.12 290.314 14.64C291.634 14.16 293.194 13.92 294.994 13.92C296.394 13.92 297.674 14.02 298.834 14.22C300.034 14.42 301.074 14.8 301.954 15.36C302.834 15.92 303.494 16.74 303.934 17.82H304.414L305.554 14.4H314.794L308.314 45H299.134L299.734 41.22H299.194C298.434 42.42 297.554 43.34 296.554 43.98C295.594 44.58 294.574 44.98 293.494 45.18C292.454 45.38 291.394 45.48 290.314 45.48ZM295.234 37.8C296.194 37.8 296.974 37.72 297.574 37.56C298.214 37.4 298.734 37.14 299.134 36.78C299.574 36.42 299.934 35.96 300.214 35.4C300.414 34.96 300.614 34.4 300.814 33.72C301.054 33 301.274 32.24 301.474 31.44C301.714 30.6 301.934 29.76 302.134 28.92C302.334 28.08 302.474 27.28 302.554 26.52C302.674 25.76 302.734 25.14 302.734 24.66C302.734 23.5 302.434 22.7 301.834 22.26C301.234 21.82 300.154 21.6 298.594 21.6C297.474 21.6 296.554 21.68 295.834 21.84C295.154 22 294.574 22.34 294.094 22.86C293.654 23.38 293.274 24.18 292.954 25.26C292.634 26.34 292.274 27.82 291.874 29.7C291.594 30.98 291.374 32.08 291.214 33C291.094 33.88 291.034 34.62 291.034 35.22C291.034 35.98 291.154 36.54 291.394 36.9C291.674 37.26 292.134 37.5 292.774 37.62C293.414 37.74 294.234 37.8 295.234 37.8ZM315.746 45L325.106 0.419998H334.886L325.466 45H315.746ZM340.594 8.04L342.214 0.419998H352.114L350.554 8.04H340.594ZM332.914 45L339.334 14.4H349.114L342.634 45H332.914ZM348.698 45L350.078 38.22L367.778 21.54H354.458L355.958 14.4H382.058L380.618 21.18L362.978 37.86H377.138L375.638 45H348.698ZM397.127 45.48C393.607 45.48 390.847 45.24 388.847 44.76C386.847 44.24 385.447 43.42 384.647 42.3C383.847 41.14 383.447 39.68 383.447 37.92C383.447 36.84 383.527 35.62 383.687 34.26C383.887 32.9 384.167 31.4 384.527 29.76C385.087 27 385.707 24.62 386.387 22.62C387.067 20.62 387.967 18.98 389.087 17.7C390.247 16.42 391.827 15.48 393.827 14.88C395.827 14.24 398.467 13.92 401.747 13.92C404.867 13.92 407.287 14.16 409.007 14.64C410.767 15.12 411.987 15.86 412.667 16.86C413.387 17.86 413.747 19.18 413.747 20.82C413.747 21.58 413.687 22.46 413.567 23.46C413.447 24.42 413.267 25.44 413.027 26.52C412.827 27.56 412.587 28.64 412.307 29.76L411.767 32.1H393.527C393.407 32.7 393.287 33.32 393.167 33.96C393.047 34.6 392.987 35.12 392.987 35.52C392.987 36.32 393.167 36.92 393.527 37.32C393.927 37.68 394.647 37.92 395.687 38.04C396.767 38.16 398.327 38.22 400.367 38.22C401.167 38.22 402.087 38.2 403.127 38.16C404.207 38.12 405.327 38.06 406.487 37.98C407.647 37.9 408.747 37.82 409.787 37.74L408.407 44.46C407.527 44.66 406.447 44.84 405.167 45C403.927 45.16 402.587 45.28 401.147 45.36C399.747 45.44 398.407 45.48 397.127 45.48ZM394.607 27.12H403.907L404.087 26.4C404.207 25.68 404.307 25.06 404.387 24.54C404.467 24.02 404.507 23.56 404.507 23.16C404.507 22.48 404.387 21.98 404.147 21.66C403.907 21.3 403.507 21.08 402.947 21C402.387 20.88 401.647 20.82 400.727 20.82C399.647 20.82 398.767 20.9 398.087 21.06C397.407 21.18 396.867 21.46 396.467 21.9C396.067 22.34 395.727 22.98 395.447 23.82C395.167 24.66 394.887 25.76 394.607 27.12ZM426.429 45.48C424.349 45.48 422.629 45.26 421.269 44.82C419.949 44.34 418.969 43.52 418.329 42.36C417.729 41.2 417.429 39.58 417.429 37.5C417.429 36.5 417.489 35.34 417.609 34.02C417.769 32.66 418.029 31.16 418.389 29.52C419.029 26.48 419.709 23.96 420.429 21.96C421.189 19.92 422.049 18.32 423.009 17.16C424.009 15.96 425.169 15.12 426.489 14.64C427.809 14.16 429.349 13.92 431.109 13.92C432.549 13.92 433.849 14.02 435.009 14.22C436.209 14.42 437.249 14.8 438.129 15.36C439.009 15.92 439.669 16.74 440.109 17.82H440.589L444.249 0.419998H453.909L444.429 45H435.249L435.849 41.22H435.309C434.589 42.42 433.729 43.34 432.729 43.98C431.769 44.58 430.749 44.98 429.669 45.18C428.589 45.38 427.509 45.48 426.429 45.48ZM431.409 37.8C432.329 37.8 433.089 37.72 433.689 37.56C434.329 37.4 434.849 37.14 435.249 36.78C435.689 36.42 436.049 35.96 436.329 35.4C436.529 34.96 436.749 34.4 436.989 33.72C437.229 33 437.449 32.24 437.649 31.44C437.849 30.6 438.049 29.76 438.249 28.92C438.449 28.08 438.589 27.28 438.669 26.52C438.789 25.76 438.849 25.14 438.849 24.66C438.849 23.5 438.549 22.7 437.949 22.26C437.389 21.82 436.329 21.6 434.769 21.6C433.609 21.6 432.669 21.68 431.949 21.84C431.269 22 430.709 22.34 430.269 22.86C429.829 23.38 429.449 24.18 429.129 25.26C428.809 26.34 428.429 27.82 427.989 29.7C427.709 30.98 427.489 32.08 427.329 33C427.209 33.88 427.149 34.62 427.149 35.22C427.149 35.98 427.289 36.54 427.569 36.9C427.849 37.26 428.309 37.5 428.949 37.62C429.589 37.74 430.409 37.8 431.409 37.8ZM191.091 99C189.365 99 187.897 98.9753 186.688 98.926C185.48 98.852 184.505 98.704 183.765 98.482C183.025 98.2353 182.483 97.8653 182.137 97.372C181.817 96.8787 181.656 96.2003 181.656 95.337C181.656 95.0163 181.669 94.6833 181.693 94.338C181.743 93.968 181.804 93.5733 181.878 93.154C181.952 92.7347 182.039 92.2783 182.137 91.785L183.691 84.533H180.213L181.138 80.13H184.616L185.763 74.654H191.794L190.647 80.13H194.828L193.903 84.533H189.722L188.168 91.859C188.144 91.9823 188.107 92.1673 188.057 92.414C188.033 92.6607 187.996 92.9073 187.946 93.154C187.897 93.4007 187.872 93.5733 187.872 93.672C187.872 93.9927 187.996 94.264 188.242 94.486C188.489 94.6833 188.896 94.819 189.463 94.893C190.055 94.9423 190.882 94.967 191.942 94.967L191.091 99ZM194.602 99L200.411 71.509H206.368L204.037 82.313H204.37C204.814 81.721 205.319 81.24 205.887 80.87C206.454 80.5 207.083 80.241 207.774 80.093C208.464 79.9203 209.192 79.834 209.957 79.834C211.313 79.834 212.362 79.9943 213.102 80.315C213.866 80.611 214.397 81.0673 214.693 81.684C214.989 82.3007 215.137 83.09 215.137 84.052C215.137 84.5207 215.087 85.125 214.989 85.865C214.89 86.5803 214.754 87.3203 214.582 88.085L212.251 99H206.331L208.44 89.084C208.563 88.4427 208.674 87.863 208.773 87.345C208.871 86.8023 208.921 86.383 208.921 86.087C208.921 85.4457 208.748 85.0387 208.403 84.866C208.057 84.6933 207.478 84.607 206.664 84.607C205.948 84.607 205.369 84.6933 204.925 84.866C204.481 85.014 204.123 85.273 203.852 85.643C203.58 85.9883 203.358 86.457 203.186 87.049C203.013 87.641 202.828 88.3687 202.631 89.232L200.522 99H194.602ZM223.038 99.296C221.755 99.296 220.694 99.1603 219.856 98.889C219.042 98.593 218.437 98.0873 218.043 97.372C217.648 96.6567 217.451 95.6577 217.451 94.375C217.451 93.7583 217.5 93.043 217.599 92.229C217.697 91.3903 217.845 90.4653 218.043 89.454C218.437 87.5793 218.857 86.0253 219.301 84.792C219.769 83.534 220.312 82.5473 220.929 81.832C221.545 81.092 222.248 80.574 223.038 80.278C223.852 79.982 224.814 79.834 225.924 79.834C226.787 79.834 227.576 79.8957 228.292 80.019C229.032 80.1423 229.673 80.3767 230.216 80.722C230.758 81.0673 231.165 81.573 231.437 82.239H231.733L232.436 80.13H238.134L234.138 99H228.477L228.847 96.669H228.514C228.045 97.409 227.502 97.9763 226.886 98.371C226.294 98.741 225.665 98.9877 224.999 99.111C224.357 99.2343 223.704 99.296 223.038 99.296ZM226.072 94.56C226.664 94.56 227.145 94.5107 227.515 94.412C227.909 94.3133 228.23 94.153 228.477 93.931C228.748 93.709 228.97 93.4253 229.143 93.08C229.266 92.8087 229.389 92.4633 229.513 92.044C229.661 91.6 229.796 91.1313 229.92 90.638C230.068 90.12 230.203 89.602 230.327 89.084C230.45 88.566 230.536 88.0727 230.586 87.604C230.66 87.1353 230.697 86.753 230.697 86.457C230.697 85.7417 230.512 85.2483 230.142 84.977C229.772 84.7057 229.106 84.57 228.144 84.57C227.453 84.57 226.886 84.6193 226.442 84.718C226.022 84.8167 225.665 85.0263 225.369 85.347C225.097 85.6677 224.863 86.161 224.666 86.827C224.468 87.493 224.246 88.4057 224 89.565C223.827 90.3543 223.691 91.0327 223.593 91.6C223.519 92.1427 223.482 92.599 223.482 92.969C223.482 93.4377 223.556 93.783 223.704 94.005C223.876 94.227 224.16 94.375 224.555 94.449C224.949 94.523 225.455 94.56 226.072 94.56ZM250.783 99C249.056 99 247.588 98.9753 246.38 98.926C245.171 98.852 244.197 98.704 243.457 98.482C242.717 98.2353 242.174 97.8653 241.829 97.372C241.508 96.8787 241.348 96.2003 241.348 95.337C241.348 95.0163 241.36 94.6833 241.385 94.338C241.434 93.968 241.496 93.5733 241.57 93.154C241.644 92.7347 241.73 92.2783 241.829 91.785L243.383 84.533H239.905L240.83 80.13H244.308L245.455 74.654H251.486L250.339 80.13H254.52L253.595 84.533H249.414L247.86 91.859C247.835 91.9823 247.798 92.1673 247.749 92.414C247.724 92.6607 247.687 92.9073 247.638 93.154C247.588 93.4007 247.564 93.5733 247.564 93.672C247.564 93.9927 247.687 94.264 247.934 94.486C248.18 94.6833 248.587 94.819 249.155 94.893C249.747 94.9423 250.573 94.967 251.634 94.967L250.783 99ZM271.602 99.296C270.763 99.296 269.863 99.2713 268.901 99.222C267.939 99.1727 267.002 99.111 266.089 99.037C265.201 98.963 264.412 98.889 263.721 98.815L264.535 94.745C265.053 94.7697 265.571 94.8067 266.089 94.856C266.607 94.9053 267.113 94.9423 267.606 94.967C268.124 94.9917 268.605 95.0163 269.049 95.041C269.518 95.041 269.962 95.041 270.381 95.041C271.294 95.041 272.009 95.004 272.527 94.93C273.07 94.856 273.477 94.7327 273.748 94.56C274.044 94.3627 274.278 94.0913 274.451 93.746C274.574 93.598 274.661 93.4377 274.71 93.265C274.784 93.0923 274.821 92.9073 274.821 92.71C274.821 92.414 274.685 92.2167 274.414 92.118C274.167 92.0193 273.686 91.933 272.971 91.859L268.346 91.23C267.31 91.082 266.582 90.749 266.163 90.231C265.744 89.713 265.534 89.01 265.534 88.122C265.534 87.8013 265.571 87.4067 265.645 86.938C265.719 86.4447 265.805 85.939 265.904 85.421C266.2 84.1383 266.595 83.127 267.088 82.387C267.581 81.6223 268.198 81.0673 268.938 80.722C269.678 80.352 270.541 80.1177 271.528 80.019C272.539 79.8957 273.674 79.834 274.932 79.834C275.746 79.834 276.585 79.8587 277.448 79.908C278.336 79.9573 279.175 80.019 279.964 80.093C280.753 80.167 281.407 80.2533 281.925 80.352L281.074 84.422C280.408 84.348 279.742 84.2863 279.076 84.237C278.41 84.1877 277.781 84.1507 277.189 84.126C276.622 84.1013 276.116 84.089 275.672 84.089C274.957 84.089 274.328 84.1013 273.785 84.126C273.267 84.1507 272.823 84.237 272.453 84.385C272.108 84.5083 271.849 84.7303 271.676 85.051C271.553 85.199 271.454 85.3717 271.38 85.569C271.306 85.7663 271.269 86.0007 271.269 86.272C271.269 86.568 271.38 86.7653 271.602 86.864C271.849 86.938 272.305 87.012 272.971 87.086L277.337 87.715C277.978 87.789 278.546 87.937 279.039 88.159C279.532 88.3563 279.902 88.6647 280.149 89.084C280.42 89.5033 280.556 90.12 280.556 90.934C280.556 91.2053 280.531 91.563 280.482 92.007C280.433 92.4263 280.346 92.8827 280.223 93.376C279.952 94.7327 279.569 95.818 279.076 96.632C278.607 97.4213 278.015 98.001 277.3 98.371C276.609 98.741 275.783 98.9877 274.821 99.111C273.884 99.2343 272.811 99.296 271.602 99.296ZM288.976 99.296C287.644 99.296 286.595 99.1357 285.831 98.815C285.091 98.4943 284.56 98.0133 284.24 97.372C283.944 96.7307 283.796 95.9413 283.796 95.004C283.796 94.5107 283.857 93.9063 283.981 93.191C284.104 92.451 284.24 91.6987 284.388 90.934L286.682 80.13H292.639L290.53 90.046C290.406 90.6873 290.295 91.2793 290.197 91.822C290.098 92.34 290.049 92.747 290.049 93.043C290.049 93.4623 290.123 93.783 290.271 94.005C290.419 94.227 290.653 94.375 290.974 94.449C291.294 94.4983 291.726 94.523 292.269 94.523C292.984 94.523 293.564 94.449 294.008 94.301C294.476 94.1283 294.834 93.8693 295.081 93.524C295.352 93.154 295.574 92.673 295.747 92.081C295.944 91.489 296.129 90.7613 296.302 89.898L298.411 80.13H304.331L300.335 99H294.674L295.007 96.669H294.711C294.267 97.2857 293.749 97.7913 293.157 98.186C292.565 98.556 291.923 98.8273 291.233 99C290.542 99.1973 289.79 99.296 288.976 99.296ZM303.436 106.4L308.986 80.13H314.647L314.277 82.461H314.61C315.079 81.6963 315.609 81.129 316.201 80.759C316.793 80.389 317.422 80.1423 318.088 80.019C318.754 79.8957 319.42 79.834 320.086 79.834C321.393 79.834 322.442 79.982 323.231 80.278C324.045 80.5493 324.649 81.0427 325.044 81.758C325.463 82.4733 325.673 83.4723 325.673 84.755C325.673 85.3717 325.624 86.087 325.525 86.901C325.426 87.715 325.278 88.64 325.081 89.676C324.686 91.5507 324.255 93.117 323.786 94.375C323.317 95.6083 322.775 96.5827 322.158 97.298C321.566 98.0133 320.863 98.5313 320.049 98.852C319.235 99.148 318.285 99.296 317.2 99.296C316.337 99.296 315.535 99.2343 314.795 99.111C314.08 98.9877 313.451 98.7533 312.908 98.408C312.365 98.0627 311.946 97.557 311.65 96.891H311.354L309.356 106.4H303.436ZM314.98 94.56C315.695 94.56 316.263 94.5107 316.682 94.412C317.126 94.3133 317.484 94.1037 317.755 93.783C318.026 93.4623 318.261 92.969 318.458 92.303C318.655 91.637 318.877 90.7243 319.124 89.565C319.321 88.751 319.457 88.0727 319.531 87.53C319.63 86.9873 319.679 86.531 319.679 86.161C319.679 85.6923 319.593 85.347 319.42 85.125C319.247 84.8783 318.964 84.7303 318.569 84.681C318.199 84.607 317.693 84.57 317.052 84.57C316.485 84.57 316.004 84.6193 315.609 84.718C315.239 84.792 314.918 84.94 314.647 85.162C314.4 85.384 314.178 85.68 313.981 86.05C313.858 86.3213 313.722 86.679 313.574 87.123C313.451 87.5423 313.315 88.011 313.167 88.529C313.044 89.047 312.92 89.565 312.797 90.083C312.698 90.601 312.612 91.0943 312.538 91.563C312.464 92.007 312.427 92.377 312.427 92.673C312.427 93.3883 312.612 93.8817 312.982 94.153C313.352 94.4243 314.018 94.56 314.98 94.56ZM325.549 106.4L331.099 80.13H336.76L336.39 82.461H336.723C337.192 81.6963 337.722 81.129 338.314 80.759C338.906 80.389 339.535 80.1423 340.201 80.019C340.867 79.8957 341.533 79.834 342.199 79.834C343.507 79.834 344.555 79.982 345.344 80.278C346.158 80.5493 346.763 81.0427 347.157 81.758C347.577 82.4733 347.786 83.4723 347.786 84.755C347.786 85.3717 347.737 86.087 347.638 86.901C347.54 87.715 347.392 88.64 347.194 89.676C346.8 91.5507 346.368 93.117 345.899 94.375C345.431 95.6083 344.888 96.5827 344.271 97.298C343.679 98.0133 342.976 98.5313 342.162 98.852C341.348 99.148 340.399 99.296 339.313 99.296C338.45 99.296 337.648 99.2343 336.908 99.111C336.193 98.9877 335.564 98.7533 335.021 98.408C334.479 98.0627 334.059 97.557 333.763 96.891H333.467L331.469 106.4H325.549ZM337.093 94.56C337.809 94.56 338.376 94.5107 338.795 94.412C339.239 94.3133 339.597 94.1037 339.868 93.783C340.14 93.4623 340.374 92.969 340.571 92.303C340.769 91.637 340.991 90.7243 341.237 89.565C341.435 88.751 341.57 88.0727 341.644 87.53C341.743 86.9873 341.792 86.531 341.792 86.161C341.792 85.6923 341.706 85.347 341.533 85.125C341.361 84.8783 341.077 84.7303 340.682 84.681C340.312 84.607 339.807 84.57 339.165 84.57C338.598 84.57 338.117 84.6193 337.722 84.718C337.352 84.792 337.032 84.94 336.76 85.162C336.514 85.384 336.292 85.68 336.094 86.05C335.971 86.3213 335.835 86.679 335.687 87.123C335.564 87.5423 335.428 88.011 335.28 88.529C335.157 89.047 335.034 89.565 334.91 90.083C334.812 90.601 334.725 91.0943 334.651 91.563C334.577 92.007 334.54 92.377 334.54 92.673C334.54 93.3883 334.725 93.8817 335.095 94.153C335.465 94.4243 336.131 94.56 337.093 94.56ZM357.875 99.296C355.679 99.296 353.965 99.1603 352.732 98.889C351.498 98.6177 350.623 98.149 350.105 97.483C349.611 96.817 349.365 95.9167 349.365 94.782C349.365 94.116 349.439 93.3637 349.587 92.525C349.735 91.6617 349.92 90.675 350.142 89.565C350.487 87.9863 350.808 86.642 351.104 85.532C351.4 84.422 351.757 83.497 352.177 82.757C352.621 82.017 353.176 81.4373 353.842 81.018C354.532 80.574 355.42 80.2657 356.506 80.093C357.616 79.9203 358.985 79.834 360.613 79.834C362.808 79.834 364.51 79.9697 365.719 80.241C366.952 80.5123 367.815 80.981 368.309 81.647C368.827 82.313 369.086 83.2257 369.086 84.385C369.086 85.051 369.024 85.8157 368.901 86.679C368.802 87.5177 368.629 88.4797 368.383 89.565C368.037 91.1437 367.704 92.488 367.384 93.598C367.063 94.708 366.693 95.633 366.274 96.373C365.854 97.113 365.299 97.705 364.609 98.149C363.943 98.5683 363.055 98.8643 361.945 99.037C360.859 99.2097 359.503 99.296 357.875 99.296ZM358.134 94.893C358.775 94.893 359.305 94.8683 359.725 94.819C360.144 94.745 360.477 94.6093 360.724 94.412C360.995 94.2147 361.217 93.931 361.39 93.561C361.587 93.1663 361.76 92.6483 361.908 92.007C362.08 91.341 362.265 90.527 362.463 89.565C362.66 88.6523 362.808 87.8877 362.907 87.271C363.005 86.6543 363.055 86.1487 363.055 85.754C363.055 85.31 362.968 84.9893 362.796 84.792C362.623 84.57 362.339 84.422 361.945 84.348C361.55 84.274 361.02 84.237 360.354 84.237C359.564 84.237 358.935 84.2863 358.467 84.385C357.998 84.4837 357.64 84.718 357.394 85.088C357.147 85.458 356.925 86.0007 356.728 86.716C356.555 87.4067 356.333 88.3563 356.062 89.565C355.889 90.5023 355.741 91.2793 355.618 91.896C355.494 92.5127 355.433 93.0183 355.433 93.413C355.433 93.8323 355.519 94.153 355.692 94.375C355.864 94.597 356.148 94.745 356.543 94.819C356.937 94.8683 357.468 94.893 358.134 94.893ZM370.315 99L374.311 80.13H379.972L379.417 83.497H379.713C380.281 82.4857 380.873 81.721 381.489 81.203C382.106 80.685 382.821 80.3273 383.635 80.13C384.474 79.9327 385.448 79.834 386.558 79.834L385.411 85.199C384.129 85.199 383.043 85.3223 382.155 85.569C381.292 85.791 380.589 86.1733 380.046 86.716C379.504 87.234 379.047 87.937 378.677 88.825C378.332 89.6883 378.024 90.7737 377.752 92.081L376.235 99H370.315ZM397.771 99C396.044 99 394.577 98.9753 393.368 98.926C392.159 98.852 391.185 98.704 390.445 98.482C389.705 98.2353 389.162 97.8653 388.817 97.372C388.496 96.8787 388.336 96.2003 388.336 95.337C388.336 95.0163 388.348 94.6833 388.373 94.338C388.422 93.968 388.484 93.5733 388.558 93.154C388.632 92.7347 388.718 92.2783 388.817 91.785L390.371 84.533H386.893L387.818 80.13H391.296L392.443 74.654H398.474L397.327 80.13H401.508L400.583 84.533H396.402L394.848 91.859C394.823 91.9823 394.786 92.1673 394.737 92.414C394.712 92.6607 394.675 92.9073 394.626 93.154C394.577 93.4007 394.552 93.5733 394.552 93.672C394.552 93.9927 394.675 94.264 394.922 94.486C395.169 94.6833 395.576 94.819 396.143 94.893C396.735 94.9423 397.561 94.967 398.622 94.967L397.771 99ZM409.051 99.296C408.213 99.296 407.312 99.2713 406.35 99.222C405.388 99.1727 404.451 99.111 403.538 99.037C402.65 98.963 401.861 98.889 401.17 98.815L401.984 94.745C402.502 94.7697 403.02 94.8067 403.538 94.856C404.056 94.9053 404.562 94.9423 405.055 94.967C405.573 94.9917 406.054 95.0163 406.498 95.041C406.967 95.041 407.411 95.041 407.83 95.041C408.743 95.041 409.458 95.004 409.976 94.93C410.519 94.856 410.926 94.7327 411.197 94.56C411.493 94.3627 411.728 94.0913 411.9 93.746C412.024 93.598 412.11 93.4377 412.159 93.265C412.233 93.0923 412.27 92.9073 412.27 92.71C412.27 92.414 412.135 92.2167 411.863 92.118C411.617 92.0193 411.136 91.933 410.42 91.859L405.795 91.23C404.759 91.082 404.032 90.749 403.612 90.231C403.193 89.713 402.983 89.01 402.983 88.122C402.983 87.8013 403.02 87.4067 403.094 86.938C403.168 86.4447 403.255 85.939 403.353 85.421C403.649 84.1383 404.044 83.127 404.537 82.387C405.031 81.6223 405.647 81.0673 406.387 80.722C407.127 80.352 407.991 80.1177 408.977 80.019C409.989 79.8957 411.123 79.834 412.381 79.834C413.195 79.834 414.034 79.8587 414.897 79.908C415.785 79.9573 416.624 80.019 417.413 80.093C418.203 80.167 418.856 80.2533 419.374 80.352L418.523 84.422C417.857 84.348 417.191 84.2863 416.525 84.237C415.859 84.1877 415.23 84.1507 414.638 84.126C414.071 84.1013 413.565 84.089 413.121 84.089C412.406 84.089 411.777 84.1013 411.234 84.126C410.716 84.1507 410.272 84.237 409.902 84.385C409.557 84.5083 409.298 84.7303 409.125 85.051C409.002 85.199 408.903 85.3717 408.829 85.569C408.755 85.7663 408.718 86.0007 408.718 86.272C408.718 86.568 408.829 86.7653 409.051 86.864C409.298 86.938 409.754 87.012 410.42 87.086L414.786 87.715C415.428 87.789 415.995 87.937 416.488 88.159C416.982 88.3563 417.352 88.6647 417.598 89.084C417.87 89.5033 418.005 90.12 418.005 90.934C418.005 91.2053 417.981 91.563 417.931 92.007C417.882 92.4263 417.796 92.8827 417.672 93.376C417.401 94.7327 417.019 95.818 416.525 96.632C416.057 97.4213 415.465 98.001 414.749 98.371C414.059 98.741 413.232 98.9877 412.27 99.111C411.333 99.2343 410.26 99.296 409.051 99.296ZM437.777 99.296C436.938 99.296 436.038 99.2713 435.076 99.222C434.114 99.1727 433.177 99.111 432.264 99.037C431.376 98.963 430.587 98.889 429.896 98.815L430.71 94.745C431.228 94.7697 431.746 94.8067 432.264 94.856C432.782 94.9053 433.288 94.9423 433.781 94.967C434.299 94.9917 434.78 95.0163 435.224 95.041C435.693 95.041 436.137 95.041 436.556 95.041C437.469 95.041 438.184 95.004 438.702 94.93C439.245 94.856 439.652 94.7327 439.923 94.56C440.219 94.3627 440.453 94.0913 440.626 93.746C440.749 93.598 440.836 93.4377 440.885 93.265C440.959 93.0923 440.996 92.9073 440.996 92.71C440.996 92.414 440.86 92.2167 440.589 92.118C440.342 92.0193 439.861 91.933 439.146 91.859L434.521 91.23C433.485 91.082 432.757 90.749 432.338 90.231C431.919 89.713 431.709 89.01 431.709 88.122C431.709 87.8013 431.746 87.4067 431.82 86.938C431.894 86.4447 431.98 85.939 432.079 85.421C432.375 84.1383 432.77 83.127 433.263 82.387C433.756 81.6223 434.373 81.0673 435.113 80.722C435.853 80.352 436.716 80.1177 437.703 80.019C438.714 79.8957 439.849 79.834 441.107 79.834C441.921 79.834 442.76 79.8587 443.623 79.908C444.511 79.9573 445.35 80.019 446.139 80.093C446.928 80.167 447.582 80.2533 448.1 80.352L447.249 84.422C446.583 84.348 445.917 84.2863 445.251 84.237C444.585 84.1877 443.956 84.1507 443.364 84.126C442.797 84.1013 442.291 84.089 441.847 84.089C441.132 84.089 440.503 84.1013 439.96 84.126C439.442 84.1507 438.998 84.237 438.628 84.385C438.283 84.5083 438.024 84.7303 437.851 85.051C437.728 85.199 437.629 85.3717 437.555 85.569C437.481 85.7663 437.444 86.0007 437.444 86.272C437.444 86.568 437.555 86.7653 437.777 86.864C438.024 86.938 438.48 87.012 439.146 87.086L443.512 87.715C444.153 87.789 444.721 87.937 445.214 88.159C445.707 88.3563 446.077 88.6647 446.324 89.084C446.595 89.5033 446.731 90.12 446.731 90.934C446.731 91.2053 446.706 91.563 446.657 92.007C446.608 92.4263 446.521 92.8827 446.398 93.376C446.127 94.7327 445.744 95.818 445.251 96.632C444.782 97.4213 444.19 98.001 443.475 98.371C442.784 98.741 441.958 98.9877 440.996 99.111C440.059 99.2343 438.986 99.296 437.777 99.296ZM449.193 99L455.002 71.509H460.959L458.628 82.313H458.961C459.405 81.721 459.911 81.24 460.478 80.87C461.046 80.5 461.675 80.241 462.365 80.093C463.056 79.9203 463.784 79.834 464.548 79.834C465.905 79.834 466.953 79.9943 467.693 80.315C468.458 80.611 468.988 81.0673 469.284 81.684C469.58 82.3007 469.728 83.09 469.728 84.052C469.728 84.5207 469.679 85.125 469.58 85.865C469.482 86.5803 469.346 87.3203 469.173 88.085L466.842 99H460.922L463.031 89.084C463.155 88.4427 463.266 87.863 463.364 87.345C463.463 86.8023 463.512 86.383 463.512 86.087C463.512 85.4457 463.34 85.0387 462.994 84.866C462.649 84.6933 462.069 84.607 461.255 84.607C460.54 84.607 459.96 84.6933 459.516 84.866C459.072 85.014 458.715 85.273 458.443 85.643C458.172 85.9883 457.95 86.457 457.777 87.049C457.605 87.641 457.42 88.3687 457.222 89.232L455.113 99H449.193ZM477.629 99.296C476.347 99.296 475.286 99.1603 474.447 98.889C473.633 98.593 473.029 98.0873 472.634 97.372C472.24 96.6567 472.042 95.6577 472.042 94.375C472.042 93.7583 472.092 93.043 472.19 92.229C472.289 91.3903 472.437 90.4653 472.634 89.454C473.029 87.5793 473.448 86.0253 473.892 84.792C474.361 83.534 474.904 82.5473 475.52 81.832C476.137 81.092 476.84 80.574 477.629 80.278C478.443 79.982 479.405 79.834 480.515 79.834C481.379 79.834 482.168 79.8957 482.883 80.019C483.623 80.1423 484.265 80.3767 484.807 80.722C485.35 81.0673 485.757 81.573 486.028 82.239H486.324L487.027 80.13H492.725L488.729 99H483.068L483.438 96.669H483.105C482.637 97.409 482.094 97.9763 481.477 98.371C480.885 98.741 480.256 98.9877 479.59 99.111C478.949 99.2343 478.295 99.296 477.629 99.296ZM480.663 94.56C481.255 94.56 481.736 94.5107 482.106 94.412C482.501 94.3133 482.822 94.153 483.068 93.931C483.34 93.709 483.562 93.4253 483.734 93.08C483.858 92.8087 483.981 92.4633 484.104 92.044C484.252 91.6 484.388 91.1313 484.511 90.638C484.659 90.12 484.795 89.602 484.918 89.084C485.042 88.566 485.128 88.0727 485.177 87.604C485.251 87.1353 485.288 86.753 485.288 86.457C485.288 85.7417 485.103 85.2483 484.733 84.977C484.363 84.7057 483.697 84.57 482.735 84.57C482.045 84.57 481.477 84.6193 481.033 84.718C480.614 84.8167 480.256 85.0263 479.96 85.347C479.689 85.6677 479.455 86.161 479.257 86.827C479.06 87.493 478.838 88.4057 478.591 89.565C478.419 90.3543 478.283 91.0327 478.184 91.6C478.11 92.1427 478.073 92.599 478.073 92.969C478.073 93.4377 478.147 93.783 478.295 94.005C478.468 94.227 478.752 94.375 479.146 94.449C479.541 94.523 480.047 94.56 480.663 94.56ZM493.275 99L497.271 80.13H502.932L502.377 83.497H502.673C503.241 82.4857 503.833 81.721 504.449 81.203C505.066 80.685 505.781 80.3273 506.595 80.13C507.434 79.9327 508.408 79.834 509.518 79.834L508.371 85.199C507.089 85.199 506.003 85.3223 505.115 85.569C504.252 85.791 503.549 86.1733 503.006 86.716C502.464 87.234 502.007 87.937 501.637 88.825C501.292 89.6883 500.984 90.7737 500.712 92.081L499.195 99H493.275ZM517.807 99.296C515.636 99.296 513.934 99.148 512.701 98.852C511.468 98.5313 510.604 98.0257 510.111 97.335C509.618 96.6197 509.371 95.7193 509.371 94.634C509.371 93.968 509.42 93.2157 509.519 92.377C509.642 91.5383 509.815 90.6133 510.037 89.602C510.382 87.9 510.765 86.4323 511.184 85.199C511.603 83.9657 512.158 82.9543 512.849 82.165C513.564 81.3757 514.539 80.796 515.772 80.426C517.005 80.0313 518.633 79.834 520.656 79.834C522.58 79.834 524.072 79.982 525.133 80.278C526.218 80.574 526.971 81.0303 527.39 81.647C527.834 82.2637 528.056 83.0777 528.056 84.089C528.056 84.5577 528.019 85.1003 527.945 85.717C527.871 86.309 527.76 86.938 527.612 87.604C527.489 88.2453 527.341 88.9113 527.168 89.602L526.835 91.045H515.587C515.513 91.415 515.439 91.7973 515.365 92.192C515.291 92.5867 515.254 92.9073 515.254 93.154C515.254 93.6473 515.365 94.0173 515.587 94.264C515.834 94.486 516.278 94.634 516.919 94.708C517.585 94.782 518.547 94.819 519.805 94.819C520.298 94.819 520.866 94.8067 521.507 94.782C522.173 94.7573 522.864 94.7203 523.579 94.671C524.294 94.6217 524.973 94.5723 525.614 94.523L524.763 98.667C524.22 98.7903 523.554 98.9013 522.765 99C522 99.0987 521.174 99.1727 520.286 99.222C519.423 99.2713 518.596 99.296 517.807 99.296ZM516.253 87.974H521.988L522.099 87.53C522.173 87.086 522.235 86.7037 522.284 86.383C522.333 86.0623 522.358 85.7787 522.358 85.532C522.358 85.1127 522.284 84.8043 522.136 84.607C521.988 84.385 521.741 84.2493 521.396 84.2C521.051 84.126 520.594 84.089 520.027 84.089C519.361 84.089 518.818 84.1383 518.399 84.237C517.98 84.311 517.647 84.4837 517.4 84.755C517.153 85.0263 516.944 85.421 516.771 85.939C516.598 86.457 516.426 87.1353 516.253 87.974ZM531.029 90.786L531.991 86.161H542.24L541.278 90.786H531.029ZM555.816 99C554.089 99 552.622 98.9753 551.413 98.926C550.204 98.852 549.23 98.704 548.49 98.482C547.75 98.2353 547.207 97.8653 546.862 97.372C546.541 96.8787 546.381 96.2003 546.381 95.337C546.381 95.0163 546.393 94.6833 546.418 94.338C546.467 93.968 546.529 93.5733 546.603 93.154C546.677 92.7347 546.763 92.2783 546.862 91.785L548.416 84.533H544.938L545.863 80.13H549.341L550.488 74.654H556.519L555.372 80.13H559.553L558.628 84.533H554.447L552.893 91.859C552.868 91.9823 552.831 92.1673 552.782 92.414C552.757 92.6607 552.72 92.9073 552.671 93.154C552.622 93.4007 552.597 93.5733 552.597 93.672C552.597 93.9927 552.72 94.264 552.967 94.486C553.214 94.6833 553.621 94.819 554.188 94.893C554.78 94.9423 555.606 94.967 556.667 94.967L555.816 99ZM568.095 99.296C565.9 99.296 564.186 99.1603 562.952 98.889C561.719 98.6177 560.843 98.149 560.325 97.483C559.832 96.817 559.585 95.9167 559.585 94.782C559.585 94.116 559.659 93.3637 559.807 92.525C559.955 91.6617 560.14 90.675 560.362 89.565C560.708 87.9863 561.028 86.642 561.324 85.532C561.62 84.422 561.978 83.497 562.397 82.757C562.841 82.017 563.396 81.4373 564.062 81.018C564.753 80.574 565.641 80.2657 566.726 80.093C567.836 79.9203 569.205 79.834 570.833 79.834C573.029 79.834 574.731 79.9697 575.939 80.241C577.173 80.5123 578.036 80.981 578.529 81.647C579.047 82.313 579.306 83.2257 579.306 84.385C579.306 85.051 579.245 85.8157 579.121 86.679C579.023 87.5177 578.85 88.4797 578.603 89.565C578.258 91.1437 577.925 92.488 577.604 93.598C577.284 94.708 576.914 95.633 576.494 96.373C576.075 97.113 575.52 97.705 574.829 98.149C574.163 98.5683 573.275 98.8643 572.165 99.037C571.08 99.2097 569.723 99.296 568.095 99.296ZM568.354 94.893C568.996 94.893 569.526 94.8683 569.945 94.819C570.365 94.745 570.698 94.6093 570.944 94.412C571.216 94.2147 571.438 93.931 571.61 93.561C571.808 93.1663 571.98 92.6483 572.128 92.007C572.301 91.341 572.486 90.527 572.683 89.565C572.881 88.6523 573.029 87.8877 573.127 87.271C573.226 86.6543 573.275 86.1487 573.275 85.754C573.275 85.31 573.189 84.9893 573.016 84.792C572.844 84.57 572.56 84.422 572.165 84.348C571.771 84.274 571.24 84.237 570.574 84.237C569.785 84.237 569.156 84.2863 568.687 84.385C568.219 84.4837 567.861 84.718 567.614 85.088C567.368 85.458 567.146 86.0007 566.948 86.716C566.776 87.4067 566.554 88.3563 566.282 89.565C566.11 90.5023 565.962 91.2793 565.838 91.896C565.715 92.5127 565.653 93.0183 565.653 93.413C565.653 93.8323 565.74 94.153 565.912 94.375C566.085 94.597 566.369 94.745 566.763 94.819C567.158 94.8683 567.688 94.893 568.354 94.893ZM581.868 90.786L582.83 86.161H593.079L592.117 90.786H581.868ZM603.695 99.296C601.524 99.296 599.822 99.148 598.589 98.852C597.355 98.5313 596.492 98.0257 595.999 97.335C595.505 96.6197 595.259 95.7193 595.259 94.634C595.259 93.968 595.308 93.2157 595.407 92.377C595.53 91.5383 595.703 90.6133 595.925 89.602C596.27 87.9 596.652 86.4323 597.072 85.199C597.491 83.9657 598.046 82.9543 598.737 82.165C599.452 81.3757 600.426 80.796 601.66 80.426C602.893 80.0313 604.521 79.834 606.544 79.834C608.468 79.834 609.96 79.982 611.021 80.278C612.106 80.574 612.858 81.0303 613.278 81.647C613.722 82.2637 613.944 83.0777 613.944 84.089C613.944 84.5577 613.907 85.1003 613.833 85.717C613.759 86.309 613.648 86.938 613.5 87.604C613.376 88.2453 613.228 88.9113 613.056 89.602L612.723 91.045H601.475C601.401 91.415 601.327 91.7973 601.253 92.192C601.179 92.5867 601.142 92.9073 601.142 93.154C601.142 93.6473 601.253 94.0173 601.475 94.264C601.721 94.486 602.165 94.634 602.807 94.708C603.473 94.782 604.435 94.819 605.693 94.819C606.186 94.819 606.753 94.8067 607.395 94.782C608.061 94.7573 608.751 94.7203 609.467 94.671C610.182 94.6217 610.86 94.5723 611.502 94.523L610.651 98.667C610.108 98.7903 609.442 98.9013 608.653 99C607.888 99.0987 607.062 99.1727 606.174 99.222C605.31 99.2713 604.484 99.296 603.695 99.296ZM602.141 87.974H607.876L607.987 87.53C608.061 87.086 608.122 86.7037 608.172 86.383C608.221 86.0623 608.246 85.7787 608.246 85.532C608.246 85.1127 608.172 84.8043 608.024 84.607C607.876 84.385 607.629 84.2493 607.284 84.2C606.938 84.126 606.482 84.089 605.915 84.089C605.249 84.089 604.706 84.1383 604.287 84.237C603.867 84.311 603.534 84.4837 603.288 84.755C603.041 85.0263 602.831 85.421 602.659 85.939C602.486 86.457 602.313 87.1353 602.141 87.974ZM621.727 99.296C620.444 99.296 619.384 99.1603 618.545 98.889C617.731 98.593 617.127 98.0873 616.732 97.372C616.337 96.6567 616.14 95.6577 616.14 94.375C616.14 93.7583 616.189 93.043 616.288 92.229C616.387 91.3903 616.535 90.4653 616.732 89.454C617.127 87.5793 617.546 86.0253 617.99 84.792C618.459 83.534 619.001 82.5473 619.618 81.832C620.235 81.092 620.938 80.574 621.727 80.278C622.541 79.982 623.503 79.834 624.613 79.834C625.476 79.834 626.266 79.8957 626.981 80.019C627.721 80.1423 628.362 80.3767 628.905 80.722C629.448 81.0673 629.855 81.573 630.126 82.239H630.422L631.125 80.13H636.823L632.827 99H627.166L627.536 96.669H627.203C626.734 97.409 626.192 97.9763 625.575 98.371C624.983 98.741 624.354 98.9877 623.688 99.111C623.047 99.2343 622.393 99.296 621.727 99.296ZM624.761 94.56C625.353 94.56 625.834 94.5107 626.204 94.412C626.599 94.3133 626.919 94.153 627.166 93.931C627.437 93.709 627.659 93.4253 627.832 93.08C627.955 92.8087 628.079 92.4633 628.202 92.044C628.35 91.6 628.486 91.1313 628.609 90.638C628.757 90.12 628.893 89.602 629.016 89.084C629.139 88.566 629.226 88.0727 629.275 87.604C629.349 87.1353 629.386 86.753 629.386 86.457C629.386 85.7417 629.201 85.2483 628.831 84.977C628.461 84.7057 627.795 84.57 626.833 84.57C626.142 84.57 625.575 84.6193 625.131 84.718C624.712 84.8167 624.354 85.0263 624.058 85.347C623.787 85.6677 623.552 86.161 623.355 86.827C623.158 87.493 622.936 88.4057 622.689 89.565C622.516 90.3543 622.381 91.0327 622.282 91.6C622.208 92.1427 622.171 92.599 622.171 92.969C622.171 93.4377 622.245 93.783 622.393 94.005C622.566 94.227 622.849 94.375 623.244 94.449C623.639 94.523 624.144 94.56 624.761 94.56ZM637.373 99L641.369 80.13H647.03L646.475 83.497H646.771C647.338 82.4857 647.93 81.721 648.547 81.203C649.164 80.685 649.879 80.3273 650.693 80.13C651.532 79.9327 652.506 79.834 653.616 79.834L652.469 85.199C651.186 85.199 650.101 85.3223 649.213 85.569C648.35 85.791 647.647 86.1733 647.104 86.716C646.561 87.234 646.105 87.937 645.735 88.825C645.39 89.6883 645.081 90.7737 644.81 92.081L643.293 99H637.373ZM652.766 99L656.762 80.13H662.423L662.09 82.461H662.423C662.867 81.8197 663.372 81.314 663.94 80.944C664.532 80.574 665.185 80.3027 665.901 80.13C666.616 79.9327 667.356 79.834 668.121 79.834C669.477 79.834 670.526 79.9943 671.266 80.315C672.03 80.611 672.561 81.0673 672.857 81.684C673.153 82.3007 673.301 83.09 673.301 84.052C673.301 84.5207 673.251 85.125 673.153 85.865C673.054 86.5803 672.918 87.3203 672.746 88.085L670.415 99H664.495L666.604 89.084C666.727 88.4427 666.838 87.863 666.937 87.345C667.035 86.8023 667.085 86.383 667.085 86.087C667.085 85.6677 666.998 85.3593 666.826 85.162C666.678 84.94 666.443 84.792 666.123 84.718C665.802 84.644 665.37 84.607 664.828 84.607C664.112 84.607 663.533 84.6933 663.089 84.866C662.645 85.014 662.287 85.273 662.016 85.643C661.744 85.9883 661.522 86.457 661.35 87.049C661.177 87.641 660.992 88.3687 660.795 89.232L658.686 99H652.766ZM690.741 99.296C689.458 99.296 688.397 99.1603 687.559 98.889C686.745 98.593 686.14 98.0873 685.746 97.372C685.351 96.6567 685.154 95.6577 685.154 94.375C685.154 93.7583 685.203 93.043 685.302 92.229C685.4 91.3903 685.548 90.4653 685.746 89.454C686.14 87.5793 686.56 86.0253 687.004 84.792C687.472 83.534 688.015 82.5473 688.632 81.832C689.248 81.092 689.951 80.574 690.741 80.278C691.555 79.982 692.517 79.834 693.627 79.834C694.49 79.834 695.279 79.8957 695.995 80.019C696.735 80.1423 697.376 80.3767 697.919 80.722C698.461 81.0673 698.868 81.573 699.14 82.239H699.436L700.139 80.13H705.837L701.841 99H696.18L696.55 96.669H696.217C695.748 97.409 695.205 97.9763 694.589 98.371C693.997 98.741 693.368 98.9877 692.702 99.111C692.06 99.2343 691.407 99.296 690.741 99.296ZM693.775 94.56C694.367 94.56 694.848 94.5107 695.218 94.412C695.612 94.3133 695.933 94.153 696.18 93.931C696.451 93.709 696.673 93.4253 696.846 93.08C696.969 92.8087 697.092 92.4633 697.216 92.044C697.364 91.6 697.499 91.1313 697.623 90.638C697.771 90.12 697.906 89.602 698.03 89.084C698.153 88.566 698.239 88.0727 698.289 87.604C698.363 87.1353 698.4 86.753 698.4 86.457C698.4 85.7417 698.215 85.2483 697.845 84.977C697.475 84.7057 696.809 84.57 695.847 84.57C695.156 84.57 694.589 84.6193 694.145 84.718C693.725 84.8167 693.368 85.0263 693.072 85.347C692.8 85.6677 692.566 86.161 692.369 86.827C692.171 87.493 691.949 88.4057 691.703 89.565C691.53 90.3543 691.394 91.0327 691.296 91.6C691.222 92.1427 691.185 92.599 691.185 92.969C691.185 93.4377 691.259 93.783 691.407 94.005C691.579 94.227 691.863 94.375 692.258 94.449C692.652 94.523 693.158 94.56 693.775 94.56ZM706.387 99L710.383 80.13H716.044L715.711 82.461H716.044C716.488 81.8197 716.993 81.314 717.561 80.944C718.153 80.574 718.806 80.3027 719.522 80.13C720.237 79.9327 720.977 79.834 721.742 79.834C723.098 79.834 724.147 79.9943 724.887 80.315C725.651 80.611 726.182 81.0673 726.478 81.684C726.774 82.3007 726.922 83.09 726.922 84.052C726.922 84.5207 726.872 85.125 726.774 85.865C726.675 86.5803 726.539 87.3203 726.367 88.085L724.036 99H718.116L720.225 89.084C720.348 88.4427 720.459 87.863 720.558 87.345C720.656 86.8023 720.706 86.383 720.706 86.087C720.706 85.6677 720.619 85.3593 720.447 85.162C720.299 84.94 720.064 84.792 719.744 84.718C719.423 84.644 718.991 84.607 718.449 84.607C717.733 84.607 717.154 84.6933 716.71 84.866C716.266 85.014 715.908 85.273 715.637 85.643C715.365 85.9883 715.143 86.457 714.971 87.049C714.798 87.641 714.613 88.3687 714.416 89.232L712.307 99H706.387ZM734.86 99.296C733.577 99.296 732.516 99.1603 731.678 98.889C730.864 98.593 730.259 98.0873 729.865 97.372C729.495 96.6567 729.31 95.6577 729.31 94.375C729.31 93.7583 729.347 93.043 729.421 92.229C729.519 91.3903 729.68 90.4653 729.902 89.454C730.296 87.5793 730.716 86.0253 731.16 84.792C731.628 83.534 732.159 82.5473 732.751 81.832C733.367 81.092 734.083 80.574 734.897 80.278C735.711 79.982 736.66 79.834 737.746 79.834C738.634 79.834 739.435 79.8957 740.151 80.019C740.891 80.1423 741.532 80.3767 742.075 80.722C742.617 81.0673 743.024 81.573 743.296 82.239H743.592L745.849 71.509H751.806L745.96 99H740.299L740.669 96.669H740.336C739.892 97.409 739.361 97.9763 738.745 98.371C738.153 98.741 737.524 98.9877 736.858 99.111C736.192 99.2343 735.526 99.296 734.86 99.296ZM737.931 94.56C738.498 94.56 738.967 94.5107 739.337 94.412C739.731 94.3133 740.052 94.153 740.299 93.931C740.57 93.709 740.792 93.4253 740.965 93.08C741.088 92.8087 741.224 92.4633 741.372 92.044C741.52 91.6 741.655 91.1313 741.779 90.638C741.902 90.12 742.025 89.602 742.149 89.084C742.272 88.566 742.358 88.0727 742.408 87.604C742.482 87.1353 742.519 86.753 742.519 86.457C742.519 85.7417 742.334 85.2483 741.964 84.977C741.618 84.7057 740.965 84.57 740.003 84.57C739.287 84.57 738.708 84.6193 738.264 84.718C737.844 84.8167 737.499 85.0263 737.228 85.347C736.956 85.6677 736.722 86.161 736.525 86.827C736.327 87.493 736.093 88.4057 735.822 89.565C735.649 90.3543 735.513 91.0327 735.415 91.6C735.341 92.1427 735.304 92.599 735.304 92.969C735.304 93.4377 735.39 93.783 735.563 94.005C735.735 94.227 736.019 94.375 736.414 94.449C736.808 94.523 737.314 94.56 737.931 94.56ZM760.37 99L766.142 71.509H772.173L766.364 99H760.37ZM780.059 99.296C777.888 99.296 776.186 99.148 774.953 98.852C773.72 98.5313 772.856 98.0257 772.363 97.335C771.87 96.6197 771.623 95.7193 771.623 94.634C771.623 93.968 771.672 93.2157 771.771 92.377C771.894 91.5383 772.067 90.6133 772.289 89.602C772.634 87.9 773.017 86.4323 773.436 85.199C773.855 83.9657 774.41 82.9543 775.101 82.165C775.816 81.3757 776.791 80.796 778.024 80.426C779.257 80.0313 780.885 79.834 782.908 79.834C784.832 79.834 786.324 79.982 787.385 80.278C788.47 80.574 789.223 81.0303 789.642 81.647C790.086 82.2637 790.308 83.0777 790.308 84.089C790.308 84.5577 790.271 85.1003 790.197 85.717C790.123 86.309 790.012 86.938 789.864 87.604C789.741 88.2453 789.593 88.9113 789.42 89.602L789.087 91.045H777.839C777.765 91.415 777.691 91.7973 777.617 92.192C777.543 92.5867 777.506 92.9073 777.506 93.154C777.506 93.6473 777.617 94.0173 777.839 94.264C778.086 94.486 778.53 94.634 779.171 94.708C779.837 94.782 780.799 94.819 782.057 94.819C782.55 94.819 783.118 94.8067 783.759 94.782C784.425 94.7573 785.116 94.7203 785.831 94.671C786.546 94.6217 787.225 94.5723 787.866 94.523L787.015 98.667C786.472 98.7903 785.806 98.9013 785.017 99C784.252 99.0987 783.426 99.1727 782.538 99.222C781.675 99.2713 780.848 99.296 780.059 99.296ZM778.505 87.974H784.24L784.351 87.53C784.425 87.086 784.487 86.7037 784.536 86.383C784.585 86.0623 784.61 85.7787 784.61 85.532C784.61 85.1127 784.536 84.8043 784.388 84.607C784.24 84.385 783.993 84.2493 783.648 84.2C783.303 84.126 782.846 84.089 782.279 84.089C781.613 84.089 781.07 84.1383 780.651 84.237C780.232 84.311 779.899 84.4837 779.652 84.755C779.405 85.0263 779.196 85.421 779.023 85.939C778.85 86.457 778.678 87.1353 778.505 87.974ZM795.945 99L794.169 80.13H799.978L800.866 93.709H801.199L807.748 80.13H813.853L803.974 99H795.945ZM821.828 99.296C819.658 99.296 817.956 99.148 816.722 98.852C815.489 98.5313 814.626 98.0257 814.132 97.335C813.639 96.6197 813.392 95.7193 813.392 94.634C813.392 93.968 813.442 93.2157 813.54 92.377C813.664 91.5383 813.836 90.6133 814.058 89.602C814.404 87.9 814.786 86.4323 815.205 85.199C815.625 83.9657 816.18 82.9543 816.87 82.165C817.586 81.3757 818.56 80.796 819.793 80.426C821.027 80.0313 822.655 79.834 824.677 79.834C826.601 79.834 828.094 79.982 829.154 80.278C830.24 80.574 830.992 81.0303 831.411 81.647C831.855 82.2637 832.077 83.0777 832.077 84.089C832.077 84.5577 832.04 85.1003 831.966 85.717C831.892 86.309 831.781 86.938 831.633 87.604C831.51 88.2453 831.362 88.9113 831.189 89.602L830.856 91.045H819.608C819.534 91.415 819.46 91.7973 819.386 92.192C819.312 92.5867 819.275 92.9073 819.275 93.154C819.275 93.6473 819.386 94.0173 819.608 94.264C819.855 94.486 820.299 94.634 820.94 94.708C821.606 94.782 822.568 94.819 823.826 94.819C824.32 94.819 824.887 94.8067 825.528 94.782C826.194 94.7573 826.885 94.7203 827.6 94.671C828.316 94.6217 828.994 94.5723 829.635 94.523L828.784 98.667C828.242 98.7903 827.576 98.9013 826.786 99C826.022 99.0987 825.195 99.1727 824.307 99.222C823.444 99.2713 822.618 99.296 821.828 99.296ZM820.274 87.974H826.009L826.12 87.53C826.194 87.086 826.256 86.7037 826.305 86.383C826.355 86.0623 826.379 85.7787 826.379 85.532C826.379 85.1127 826.305 84.8043 826.157 84.607C826.009 84.385 825.763 84.2493 825.417 84.2C825.072 84.126 824.616 84.089 824.048 84.089C823.382 84.089 822.84 84.1383 822.42 84.237C822.001 84.311 821.668 84.4837 821.421 84.755C821.175 85.0263 820.965 85.421 820.792 85.939C820.62 86.457 820.447 87.1353 820.274 87.974ZM833.719 99L837.715 80.13H843.376L842.821 83.497H843.117C843.684 82.4857 844.276 81.721 844.893 81.203C845.509 80.685 846.225 80.3273 847.039 80.13C847.877 79.9327 848.852 79.834 849.962 79.834L848.815 85.199C847.532 85.199 846.447 85.3223 845.559 85.569C844.695 85.791 843.992 86.1733 843.45 86.716C842.907 87.234 842.451 87.937 842.081 88.825C841.735 89.6883 841.427 90.7737 841.156 92.081L839.639 99H833.719ZM855.253 99.296C853.971 99.296 852.91 99.1603 852.071 98.889C851.257 98.593 850.653 98.0873 850.258 97.372C849.864 96.6567 849.666 95.6577 849.666 94.375C849.666 93.7583 849.716 93.043 849.814 92.229C849.913 91.3903 850.061 90.4653 850.258 89.454C850.653 87.5793 851.072 86.0253 851.516 84.792C851.985 83.534 852.528 82.5473 853.144 81.832C853.761 81.092 854.464 80.574 855.253 80.278C856.067 79.982 857.029 79.834 858.139 79.834C859.003 79.834 859.792 79.8957 860.507 80.019C861.247 80.1423 861.889 80.3767 862.431 80.722C862.974 81.0673 863.381 81.573 863.652 82.239H863.948L864.651 80.13H870.349L866.353 99H860.692L861.062 96.669H860.729C860.261 97.409 859.718 97.9763 859.101 98.371C858.509 98.741 857.88 98.9877 857.214 99.111C856.573 99.2343 855.919 99.296 855.253 99.296ZM858.287 94.56C858.879 94.56 859.36 94.5107 859.73 94.412C860.125 94.3133 860.446 94.153 860.692 93.931C860.964 93.709 861.186 93.4253 861.358 93.08C861.482 92.8087 861.605 92.4633 861.728 92.044C861.876 91.6 862.012 91.1313 862.135 90.638C862.283 90.12 862.419 89.602 862.542 89.084C862.666 88.566 862.752 88.0727 862.801 87.604C862.875 87.1353 862.912 86.753 862.912 86.457C862.912 85.7417 862.727 85.2483 862.357 84.977C861.987 84.7057 861.321 84.57 860.359 84.57C859.669 84.57 859.101 84.6193 858.657 84.718C858.238 84.8167 857.88 85.0263 857.584 85.347C857.313 85.6677 857.079 86.161 856.881 86.827C856.684 87.493 856.462 88.4057 856.215 89.565C856.043 90.3543 855.907 91.0327 855.808 91.6C855.734 92.1427 855.697 92.599 855.697 92.969C855.697 93.4377 855.771 93.783 855.919 94.005C856.092 94.227 856.376 94.375 856.77 94.449C857.165 94.523 857.671 94.56 858.287 94.56ZM877.004 106.622C876.19 106.622 875.364 106.597 874.525 106.548C873.687 106.523 872.91 106.474 872.194 106.4C871.479 106.326 870.875 106.24 870.381 106.141L871.269 102.034C871.787 102.059 872.33 102.071 872.897 102.071C873.489 102.096 874.081 102.108 874.673 102.108C875.29 102.108 875.87 102.108 876.412 102.108C877.621 102.108 878.583 102.059 879.298 101.96C880.014 101.886 880.556 101.701 880.926 101.405C881.296 101.134 881.58 100.714 881.777 100.147C881.999 99.6043 882.209 98.8643 882.406 97.927C882.456 97.705 882.505 97.483 882.554 97.261C882.628 97.039 882.69 96.817 882.739 96.595H882.443C881.95 97.2363 881.407 97.7297 880.815 98.075C880.223 98.3957 879.582 98.6177 878.891 98.741C878.225 98.8643 877.485 98.926 876.671 98.926C875.586 98.926 874.673 98.7903 873.933 98.519C873.218 98.223 872.688 97.742 872.342 97.076C871.997 96.41 871.824 95.4973 871.824 94.338C871.824 93.6967 871.874 92.969 871.972 92.155C872.096 91.341 872.256 90.4283 872.453 89.417C872.848 87.5423 873.28 85.9883 873.748 84.755C874.242 83.5217 874.797 82.5473 875.413 81.832C876.055 81.1167 876.807 80.611 877.67 80.315C878.534 79.9943 879.545 79.834 880.704 79.834C881.395 79.834 882.061 79.908 882.702 80.056C883.368 80.1793 883.948 80.426 884.441 80.796C884.935 81.166 885.292 81.7087 885.514 82.424H885.847L886.476 80.13H892.137L888.585 96.854C888.289 98.2107 887.981 99.4193 887.66 100.48C887.34 101.565 886.933 102.49 886.439 103.255C885.946 104.02 885.305 104.649 884.515 105.142C883.726 105.635 882.715 106.005 881.481 106.252C880.273 106.499 878.78 106.622 877.004 106.622ZM880.334 94.079C880.803 94.079 881.198 94.0543 881.518 94.005C881.864 93.931 882.147 93.8077 882.369 93.635C882.616 93.4623 882.838 93.2403 883.035 92.969C883.159 92.7717 883.294 92.4757 883.442 92.081C883.59 91.6617 883.726 91.193 883.849 90.675C883.997 90.157 884.121 89.6267 884.219 89.084C884.343 88.5413 884.441 88.0357 884.515 87.567C884.589 87.0983 884.626 86.7037 884.626 86.383C884.626 85.7417 884.429 85.31 884.034 85.088C883.664 84.8413 883.085 84.718 882.295 84.718C881.629 84.718 881.087 84.7673 880.667 84.866C880.273 84.94 879.94 85.125 879.668 85.421C879.422 85.717 879.2 86.1857 879.002 86.827C878.83 87.4683 878.632 88.3317 878.41 89.417C878.238 90.1817 878.102 90.823 878.003 91.341C877.929 91.859 877.892 92.2907 877.892 92.636C877.892 93.0553 877.966 93.376 878.114 93.598C878.287 93.7953 878.546 93.931 878.891 94.005C879.261 94.0543 879.742 94.079 880.334 94.079ZM902.079 99.296C899.909 99.296 898.207 99.148 896.973 98.852C895.74 98.5313 894.877 98.0257 894.383 97.335C893.89 96.6197 893.643 95.7193 893.643 94.634C893.643 93.968 893.693 93.2157 893.791 92.377C893.915 91.5383 894.087 90.6133 894.309 89.602C894.655 87.9 895.037 86.4323 895.456 85.199C895.876 83.9657 896.431 82.9543 897.121 82.165C897.837 81.3757 898.811 80.796 900.044 80.426C901.278 80.0313 902.906 79.834 904.928 79.834C906.852 79.834 908.345 79.982 909.405 80.278C910.491 80.574 911.243 81.0303 911.662 81.647C912.106 82.2637 912.328 83.0777 912.328 84.089C912.328 84.5577 912.291 85.1003 912.217 85.717C912.143 86.309 912.032 86.938 911.884 87.604C911.761 88.2453 911.613 88.9113 911.44 89.602L911.107 91.045H899.859C899.785 91.415 899.711 91.7973 899.637 92.192C899.563 92.5867 899.526 92.9073 899.526 93.154C899.526 93.6473 899.637 94.0173 899.859 94.264C900.106 94.486 900.55 94.634 901.191 94.708C901.857 94.782 902.819 94.819 904.077 94.819C904.571 94.819 905.138 94.8067 905.779 94.782C906.445 94.7573 907.136 94.7203 907.851 94.671C908.567 94.6217 909.245 94.5723 909.886 94.523L909.035 98.667C908.493 98.7903 907.827 98.9013 907.037 99C906.273 99.0987 905.446 99.1727 904.558 99.222C903.695 99.2713 902.869 99.296 902.079 99.296ZM900.525 87.974H906.26L906.371 87.53C906.445 87.086 906.507 86.7037 906.556 86.383C906.606 86.0623 906.63 85.7787 906.63 85.532C906.63 85.1127 906.556 84.8043 906.408 84.607C906.26 84.385 906.014 84.2493 905.668 84.2C905.323 84.126 904.867 84.089 904.299 84.089C903.633 84.089 903.091 84.1383 902.671 84.237C902.252 84.311 901.919 84.4837 901.672 84.755C901.426 85.0263 901.216 85.421 901.043 85.939C900.871 86.457 900.698 87.1353 900.525 87.974Z" fill="#18191C"/>
<path d="M468.157 45L476.977 3.72H487.837L496.897 26.28H497.317L502.177 3.72H512.077L503.257 45H493.357L483.757 20.22H483.337L478.057 45H468.157ZM511.868 45L520.688 3.72H549.008L547.328 11.58H529.448L527.228 21.72H542.828L541.148 29.64H525.608L522.308 45H511.868ZM554.185 45L561.265 12H549.625L551.425 3.72H585.145L583.345 12H571.705L564.685 45H554.185ZM604.224 45L611.304 12H599.664L601.464 3.72H635.184L633.384 12H621.744L614.724 45H604.224ZM631.214 45L637.694 14.4H646.874L645.974 19.86H646.454C647.374 18.22 648.334 16.98 649.334 16.14C650.334 15.3 651.494 14.72 652.814 14.4C654.174 14.08 655.754 13.92 657.554 13.92L655.694 22.62C653.614 22.62 651.854 22.82 650.414 23.22C649.014 23.58 647.874 24.2 646.994 25.08C646.114 25.92 645.374 27.06 644.774 28.5C644.214 29.9 643.714 31.66 643.274 33.78L640.814 45H631.214ZM666.135 45.48C664.055 45.48 662.335 45.26 660.975 44.82C659.655 44.34 658.675 43.52 658.035 42.36C657.395 41.2 657.075 39.58 657.075 37.5C657.075 36.5 657.155 35.34 657.315 34.02C657.475 32.66 657.715 31.16 658.035 29.52C658.675 26.48 659.355 23.96 660.075 21.96C660.835 19.92 661.715 18.32 662.715 17.16C663.715 15.96 664.855 15.12 666.135 14.64C667.455 14.16 669.015 13.92 670.815 13.92C672.215 13.92 673.495 14.02 674.655 14.22C675.855 14.42 676.895 14.8 677.775 15.36C678.655 15.92 679.315 16.74 679.755 17.82H680.235L681.375 14.4H690.615L684.135 45H674.955L675.555 41.22H675.015C674.255 42.42 673.375 43.34 672.375 43.98C671.415 44.58 670.395 44.98 669.315 45.18C668.275 45.38 667.215 45.48 666.135 45.48ZM671.055 37.8C672.015 37.8 672.795 37.72 673.395 37.56C674.035 37.4 674.555 37.14 674.955 36.78C675.395 36.42 675.755 35.96 676.035 35.4C676.235 34.96 676.435 34.4 676.635 33.72C676.875 33 677.095 32.24 677.295 31.44C677.535 30.6 677.755 29.76 677.955 28.92C678.155 28.08 678.295 27.28 678.375 26.52C678.495 25.76 678.555 25.14 678.555 24.66C678.555 23.5 678.255 22.7 677.655 22.26C677.055 21.82 675.975 21.6 674.415 21.6C673.295 21.6 672.375 21.68 671.655 21.84C670.975 22 670.395 22.34 669.915 22.86C669.475 23.38 669.095 24.18 668.775 25.26C668.455 26.34 668.095 27.82 667.695 29.7C667.415 30.98 667.195 32.08 667.035 33C666.915 33.88 666.855 34.62 666.855 35.22C666.855 35.98 666.975 36.54 667.215 36.9C667.495 37.26 667.955 37.5 668.595 37.62C669.235 37.74 670.055 37.8 671.055 37.8ZM701.527 45.48C699.447 45.48 697.727 45.26 696.367 44.82C695.047 44.34 694.067 43.52 693.427 42.36C692.827 41.2 692.527 39.58 692.527 37.5C692.527 36.5 692.587 35.34 692.707 34.02C692.867 32.66 693.127 31.16 693.487 29.52C694.127 26.48 694.807 23.96 695.527 21.96C696.287 19.92 697.147 18.32 698.107 17.16C699.107 15.96 700.267 15.12 701.587 14.64C702.907 14.16 704.447 13.92 706.207 13.92C707.647 13.92 708.947 14.02 710.107 14.22C711.307 14.42 712.347 14.8 713.227 15.36C714.107 15.92 714.767 16.74 715.207 17.82H715.687L719.347 0.419998H729.007L719.527 45H710.347L710.947 41.22H710.407C709.687 42.42 708.827 43.34 707.827 43.98C706.867 44.58 705.847 44.98 704.767 45.18C703.687 45.38 702.607 45.48 701.527 45.48ZM706.507 37.8C707.427 37.8 708.187 37.72 708.787 37.56C709.427 37.4 709.947 37.14 710.347 36.78C710.787 36.42 711.147 35.96 711.427 35.4C711.627 34.96 711.847 34.4 712.087 33.72C712.327 33 712.547 32.24 712.747 31.44C712.947 30.6 713.147 29.76 713.347 28.92C713.547 28.08 713.687 27.28 713.767 26.52C713.887 25.76 713.947 25.14 713.947 24.66C713.947 23.5 713.647 22.7 713.047 22.26C712.487 21.82 711.427 21.6 709.867 21.6C708.707 21.6 707.767 21.68 707.047 21.84C706.367 22 705.807 22.34 705.367 22.86C704.927 23.38 704.547 24.18 704.227 25.26C703.907 26.34 703.527 27.82 703.087 29.7C702.807 30.98 702.587 32.08 702.427 33C702.307 33.88 702.247 34.62 702.247 35.22C702.247 35.98 702.387 36.54 702.667 36.9C702.947 37.26 703.407 37.5 704.047 37.62C704.687 37.74 705.507 37.8 706.507 37.8ZM735.106 8.04L736.726 0.419998H746.626L745.066 8.04H735.106ZM727.426 45L733.846 14.4H743.626L737.146 45H727.426ZM744.71 45L751.19 14.4H760.37L759.83 18.18H760.37C761.09 17.14 761.91 16.32 762.83 15.72C763.79 15.12 764.85 14.68 766.01 14.4C767.17 14.08 768.37 13.92 769.61 13.92C771.81 13.92 773.51 14.18 774.71 14.7C775.95 15.18 776.81 15.92 777.29 16.92C777.77 17.92 778.01 19.2 778.01 20.76C778.01 21.52 777.93 22.5 777.77 23.7C777.61 24.86 777.39 26.06 777.11 27.3L773.33 45H763.73L767.15 28.92C767.35 27.88 767.53 26.94 767.69 26.1C767.85 25.22 767.93 24.54 767.93 24.06C767.93 23.38 767.79 22.88 767.51 22.56C767.27 22.2 766.89 21.96 766.37 21.84C765.85 21.72 765.15 21.66 764.27 21.66C763.11 21.66 762.17 21.8 761.45 22.08C760.73 22.32 760.15 22.74 759.71 23.34C759.27 23.9 758.91 24.66 758.63 25.62C758.35 26.58 758.05 27.76 757.73 29.16L754.31 45H744.71ZM790.762 57.36C789.442 57.36 788.102 57.32 786.742 57.24C785.382 57.2 784.122 57.12 782.962 57C781.802 56.88 780.822 56.74 780.022 56.58L781.462 49.92C782.302 49.96 783.182 49.98 784.102 49.98C785.062 50.02 786.022 50.04 786.982 50.04C787.982 50.04 788.922 50.04 789.802 50.04C791.762 50.04 793.322 49.96 794.482 49.8C795.642 49.68 796.522 49.38 797.122 48.9C797.722 48.46 798.182 47.78 798.502 46.86C798.862 45.98 799.202 44.78 799.522 43.26C799.602 42.9 799.682 42.54 799.762 42.18C799.882 41.82 799.982 41.46 800.062 41.1H799.582C798.782 42.14 797.902 42.94 796.942 43.5C795.982 44.02 794.942 44.38 793.822 44.58C792.742 44.78 791.542 44.88 790.222 44.88C788.462 44.88 786.982 44.66 785.782 44.22C784.622 43.74 783.762 42.96 783.202 41.88C782.642 40.8 782.362 39.32 782.362 37.44C782.362 36.4 782.442 35.22 782.602 33.9C782.802 32.58 783.062 31.1 783.382 29.46C784.022 26.42 784.722 23.9 785.482 21.9C786.282 19.9 787.182 18.32 788.182 17.16C789.222 16 790.442 15.18 791.842 14.7C793.242 14.18 794.882 13.92 796.762 13.92C797.882 13.92 798.962 14.04 800.002 14.28C801.082 14.48 802.022 14.88 802.822 15.48C803.622 16.08 804.202 16.96 804.562 18.12H805.102L806.122 14.4H815.302L809.542 41.52C809.062 43.72 808.562 45.68 808.042 47.4C807.522 49.16 806.862 50.66 806.062 51.9C805.262 53.14 804.222 54.16 802.942 54.96C801.662 55.76 800.022 56.36 798.022 56.76C796.062 57.16 793.642 57.36 790.762 57.36ZM796.162 37.02C796.922 37.02 797.562 36.98 798.082 36.9C798.642 36.78 799.102 36.58 799.462 36.3C799.862 36.02 800.222 35.66 800.542 35.22C800.742 34.9 800.962 34.42 801.202 33.78C801.442 33.1 801.662 32.34 801.862 31.5C802.102 30.66 802.302 29.8 802.462 28.92C802.662 28.04 802.822 27.22 802.942 26.46C803.062 25.7 803.122 25.06 803.122 24.54C803.122 23.5 802.802 22.8 802.162 22.44C801.562 22.04 800.622 21.84 799.342 21.84C798.262 21.84 797.382 21.92 796.702 22.08C796.062 22.2 795.522 22.5 795.082 22.98C794.682 23.46 794.322 24.22 794.002 25.26C793.722 26.3 793.402 27.7 793.042 29.46C792.762 30.7 792.542 31.74 792.382 32.58C792.262 33.42 792.202 34.12 792.202 34.68C792.202 35.36 792.322 35.88 792.562 36.24C792.842 36.56 793.262 36.78 793.822 36.9C794.422 36.98 795.202 37.02 796.162 37.02ZM832.493 45L841.313 3.72H860.453C863.453 3.72 865.773 4.04 867.413 4.68C869.053 5.32 870.193 6.28 870.833 7.56C871.513 8.8 871.853 10.32 871.853 12.12C871.853 12.96 871.773 13.88 871.613 14.88C871.493 15.88 871.313 16.94 871.073 18.06C870.673 20.02 870.173 21.82 869.573 23.46C869.013 25.1 868.213 26.52 867.173 27.72C866.133 28.88 864.713 29.78 862.913 30.42C861.113 31.06 858.793 31.38 855.953 31.38H845.933L842.993 45H832.493ZM847.553 23.64H853.433C854.793 23.64 855.893 23.56 856.733 23.4C857.573 23.2 858.233 22.88 858.713 22.44C859.193 22 859.573 21.38 859.853 20.58C860.133 19.78 860.413 18.78 860.693 17.58C860.813 16.86 860.913 16.22 860.993 15.66C861.113 15.1 861.173 14.6 861.173 14.16C861.173 13.44 861.013 12.9 860.693 12.54C860.373 12.14 859.833 11.86 859.073 11.7C858.353 11.5 857.353 11.4 856.073 11.4H850.133L847.553 23.64ZM871.098 45L880.458 0.419998H890.238L880.818 45H871.098ZM898.166 45.48C896.086 45.48 894.366 45.26 893.006 44.82C891.686 44.34 890.706 43.52 890.066 42.36C889.426 41.2 889.106 39.58 889.106 37.5C889.106 36.5 889.186 35.34 889.346 34.02C889.506 32.66 889.746 31.16 890.066 29.52C890.706 26.48 891.386 23.96 892.106 21.96C892.866 19.92 893.746 18.32 894.746 17.16C895.746 15.96 896.886 15.12 898.166 14.64C899.486 14.16 901.046 13.92 902.846 13.92C904.246 13.92 905.526 14.02 906.686 14.22C907.886 14.42 908.926 14.8 909.806 15.36C910.686 15.92 911.346 16.74 911.786 17.82H912.266L913.406 14.4H922.646L916.166 45H906.986L907.586 41.22H907.046C906.286 42.42 905.406 43.34 904.406 43.98C903.446 44.58 902.426 44.98 901.346 45.18C900.306 45.38 899.246 45.48 898.166 45.48ZM903.086 37.8C904.046 37.8 904.826 37.72 905.426 37.56C906.066 37.4 906.586 37.14 906.986 36.78C907.426 36.42 907.786 35.96 908.066 35.4C908.266 34.96 908.466 34.4 908.666 33.72C908.906 33 909.126 32.24 909.326 31.44C909.566 30.6 909.786 29.76 909.986 28.92C910.186 28.08 910.326 27.28 910.406 26.52C910.526 25.76 910.586 25.14 910.586 24.66C910.586 23.5 910.286 22.7 909.686 22.26C909.086 21.82 908.006 21.6 906.446 21.6C905.326 21.6 904.406 21.68 903.686 21.84C903.006 22 902.426 22.34 901.946 22.86C901.506 23.38 901.126 24.18 900.806 25.26C900.486 26.34 900.126 27.82 899.726 29.7C899.446 30.98 899.226 32.08 899.066 33C898.946 33.88 898.886 34.62 898.886 35.22C898.886 35.98 899.006 36.54 899.246 36.9C899.526 37.26 899.986 37.5 900.626 37.62C901.266 37.74 902.086 37.8 903.086 37.8ZM943.158 45C940.358 45 937.978 44.96 936.018 44.88C934.058 44.76 932.478 44.52 931.278 44.16C930.078 43.76 929.198 43.16 928.638 42.36C928.118 41.56 927.858 40.46 927.858 39.06C927.858 38.54 927.878 38 927.918 37.44C927.998 36.84 928.098 36.2 928.218 35.52C928.338 34.84 928.478 34.1 928.638 33.3L931.158 21.54H925.518L927.018 14.4H932.658L934.518 5.52H944.298L942.438 14.4H949.218L947.718 21.54H940.938L938.418 33.42C938.378 33.62 938.318 33.92 938.238 34.32C938.198 34.72 938.138 35.12 938.058 35.52C937.978 35.92 937.938 36.2 937.938 36.36C937.938 36.88 938.138 37.32 938.538 37.68C938.938 38 939.598 38.22 940.518 38.34C941.478 38.42 942.818 38.46 944.538 38.46L943.158 45ZM944.53 57L945.97 50.4C947.61 50.4 948.79 50.28 949.51 50.04C950.27 49.84 950.77 49.5 951.01 49.02C951.29 48.58 951.49 47.98 951.61 47.22L957.07 21.54H951.31L952.87 14.4H958.57L959.05 12.18C959.57 9.86 960.11 7.98 960.67 6.54C961.23 5.1 961.93 3.96 962.77 3.12C963.61 2.28 964.69 1.68 966.01 1.32C967.33 0.919998 969.01 0.679998 971.05 0.599999C973.13 0.519998 975.67 0.479997 978.67 0.479997L977.35 7.02C975.15 7.02 973.51 7.1 972.43 7.26C971.35 7.38 970.59 7.72 970.15 8.28C969.71 8.8 969.37 9.64 969.13 10.8L968.35 14.4H975.73L974.23 21.54H966.79L961.81 45.18C961.33 47.5 960.81 49.4 960.25 50.88C959.73 52.36 959.09 53.5 958.33 54.3C957.57 55.14 956.59 55.74 955.39 56.1C954.23 56.46 952.75 56.68 950.95 56.76C949.19 56.88 947.05 56.96 944.53 57ZM988.91 45.48C985.35 45.48 982.57 45.26 980.57 44.82C978.57 44.38 977.15 43.62 976.31 42.54C975.51 41.46 975.11 40 975.11 38.16C975.11 37.08 975.23 35.86 975.47 34.5C975.71 33.1 976.01 31.5 976.37 29.7C976.93 27.14 977.45 24.96 977.93 23.16C978.41 21.36 978.99 19.86 979.67 18.66C980.39 17.46 981.29 16.52 982.37 15.84C983.49 15.12 984.93 14.62 986.69 14.34C988.49 14.06 990.71 13.92 993.35 13.92C996.91 13.92 999.67 14.14 1001.63 14.58C1003.63 15.02 1005.03 15.78 1005.83 16.86C1006.67 17.94 1007.09 19.42 1007.09 21.3C1007.09 22.38 1006.99 23.62 1006.79 25.02C1006.63 26.38 1006.35 27.94 1005.95 29.7C1005.39 32.26 1004.85 34.44 1004.33 36.24C1003.81 38.04 1003.21 39.54 1002.53 40.74C1001.85 41.94 1000.95 42.9 999.83 43.62C998.75 44.3 997.31 44.78 995.51 45.06C993.75 45.34 991.55 45.48 988.91 45.48ZM989.33 38.34C990.37 38.34 991.23 38.3 991.91 38.22C992.59 38.1 993.13 37.88 993.53 37.56C993.97 37.24 994.33 36.78 994.61 36.18C994.93 35.54 995.21 34.7 995.45 33.66C995.73 32.58 996.03 31.26 996.35 29.7C996.67 28.22 996.91 26.98 997.07 25.98C997.23 24.98 997.31 24.16 997.31 23.52C997.31 22.8 997.17 22.28 996.89 21.96C996.61 21.6 996.15 21.36 995.51 21.24C994.87 21.12 994.01 21.06 992.93 21.06C991.65 21.06 990.63 21.14 989.87 21.3C989.11 21.46 988.53 21.84 988.13 22.44C987.73 23.04 987.37 23.92 987.05 25.08C986.77 26.2 986.41 27.74 985.97 29.7C985.69 31.22 985.45 32.48 985.25 33.48C985.05 34.48 984.95 35.3 984.95 35.94C984.95 36.62 985.09 37.14 985.37 37.5C985.65 37.86 986.11 38.1 986.75 38.22C987.39 38.3 988.25 38.34 989.33 38.34ZM1009.08 45L1015.56 14.4H1024.74L1023.84 19.86H1024.32C1025.24 18.22 1026.2 16.98 1027.2 16.14C1028.2 15.3 1029.36 14.72 1030.68 14.4C1032.04 14.08 1033.62 13.92 1035.42 13.92L1033.56 22.62C1031.48 22.62 1029.72 22.82 1028.28 23.22C1026.88 23.58 1025.74 24.2 1024.86 25.08C1023.98 25.92 1023.24 27.06 1022.64 28.5C1022.08 29.9 1021.58 31.66 1021.14 33.78L1018.68 45H1009.08ZM1034.05 45L1040.53 14.4H1049.71L1049.17 18.18H1049.71C1050.43 17.14 1051.25 16.32 1052.17 15.72C1053.09 15.12 1054.09 14.68 1055.17 14.4C1056.29 14.08 1057.43 13.92 1058.59 13.92C1061.19 13.92 1063.09 14.28 1064.29 15C1065.49 15.68 1066.27 16.74 1066.63 18.18H1067.17C1067.89 17.14 1068.75 16.32 1069.75 15.72C1070.75 15.12 1071.83 14.68 1072.99 14.4C1074.15 14.08 1075.35 13.92 1076.59 13.92C1079.67 13.92 1081.75 14.48 1082.83 15.6C1083.91 16.68 1084.45 18.36 1084.45 20.64C1084.45 21.44 1084.35 22.44 1084.15 23.64C1083.99 24.84 1083.77 26.08 1083.49 27.36L1079.71 45H1070.05L1073.53 28.92C1073.77 27.84 1073.97 26.86 1074.13 25.98C1074.29 25.1 1074.37 24.42 1074.37 23.94C1074.37 22.94 1074.13 22.32 1073.65 22.08C1073.17 21.8 1072.37 21.66 1071.25 21.66C1070.17 21.66 1069.29 21.8 1068.61 22.08C1067.93 22.32 1067.39 22.72 1066.99 23.28C1066.59 23.84 1066.23 24.6 1065.91 25.56C1065.63 26.52 1065.35 27.72 1065.07 29.16L1061.65 45H1052.05L1055.53 28.92C1055.73 27.84 1055.91 26.86 1056.07 25.98C1056.23 25.1 1056.31 24.42 1056.31 23.94C1056.31 22.94 1056.07 22.32 1055.59 22.08C1055.15 21.8 1054.37 21.66 1053.25 21.66C1052.17 21.66 1051.29 21.8 1050.61 22.08C1049.93 22.32 1049.39 22.74 1048.99 23.34C1048.59 23.9 1048.25 24.66 1047.97 25.62C1047.69 26.58 1047.39 27.76 1047.07 29.16L1043.65 45H1034.05Z" fill="url(#paint0_linear_17_7538)"/>
<defs>
<linearGradient id="paint0_linear_17_7538" x1="1093.27" y1="97.9737" x2="144.293" y2="-329.36" gradientUnits="userSpaceOnUse">
<stop stop-color="#08BBE4"/>
<stop offset="1" stop-color="#54E08C"/>
</linearGradient>
</defs>
</svg>
