<svg width="132" height="40" viewBox="0 0 132 40" fill="none" xmlns="http://www.w3.org/2000/svg">
<path fill-rule="evenodd" clip-rule="evenodd" d="M24.2213 8.94111C22.015 7.6471 19.1775 8.38663 17.8835 10.5929L13.4239 18.1963L8.9644 10.5929C7.67039 8.38666 4.83286 7.64714 2.62661 8.94115C0.420349 10.2352 -0.319174 13.0727 0.974835 15.2789L9.34618 29.5519C10.2228 31.0465 11.8078 31.868 13.425 31.8401C15.0415 31.8672 16.6255 31.0458 17.5017 29.5519L25.873 15.2789C27.167 13.0727 26.4275 10.2351 24.2213 8.94111Z" fill="url(#paint0_linear_187_1701)"/>
<path d="M30.7495 10.5929C32.0435 8.38662 34.881 7.64711 37.0873 8.94111C39.2935 10.2351 40.033 13.0727 38.739 15.2789L30.3677 29.5519C29.0737 31.7581 26.2362 32.4976 24.0299 31.2036C21.8236 29.9096 21.0841 27.0721 22.3781 24.8658L30.7495 10.5929Z" fill="#004155"/>
<path d="M49.256 28L49.4 11.488H54.224L53.768 22.456H54.008L58.568 11.488H63.656L63.608 22.456H63.848L67.88 11.488H72.92L66.008 28H59.816L59.696 18.784H59.48L55.448 28H49.256ZM73.9559 13.528L74.6519 10.168H79.3079L78.5879 13.528H73.9559ZM70.9319 28L73.4999 15.76H78.1079L75.5159 28H70.9319ZM78.0564 28L80.6484 15.76H85.0164L84.8004 17.2H85.0404C85.3444 16.768 85.6884 16.44 86.0724 16.216C86.4564 15.976 86.8564 15.808 87.2724 15.712C87.7044 15.616 88.1204 15.568 88.5204 15.568C89.3524 15.568 89.9924 15.664 90.4404 15.856C90.9044 16.048 91.2244 16.336 91.4004 16.72C91.5924 17.104 91.6884 17.592 91.6884 18.184C91.6884 18.504 91.6484 18.92 91.5684 19.432C91.4884 19.928 91.3924 20.448 91.2804 20.992L89.7684 28H85.2564L86.6004 21.712C86.6804 21.328 86.7524 20.968 86.8164 20.632C86.8804 20.28 86.9124 20.024 86.9124 19.864C86.9124 19.64 86.8724 19.48 86.7924 19.384C86.7284 19.288 86.6244 19.224 86.4804 19.192C86.3524 19.16 86.1684 19.144 85.9284 19.144C85.5924 19.144 85.3204 19.176 85.1124 19.24C84.9044 19.304 84.7364 19.424 84.6084 19.6C84.4804 19.776 84.3604 20.032 84.2484 20.368C84.1524 20.688 84.0564 21.096 83.9604 21.592L82.5684 28H78.0564ZM92.3298 28L94.9218 15.76H99.2898L99.0738 17.2H99.3138C99.6178 16.768 99.9618 16.44 100.346 16.216C100.73 15.976 101.13 15.808 101.546 15.712C101.978 15.616 102.394 15.568 102.794 15.568C103.626 15.568 104.266 15.664 104.714 15.856C105.178 16.048 105.498 16.336 105.674 16.72C105.866 17.104 105.962 17.592 105.962 18.184C105.962 18.504 105.922 18.92 105.842 19.432C105.762 19.928 105.666 20.448 105.554 20.992L104.042 28H99.5298L100.874 21.712C100.954 21.328 101.026 20.968 101.09 20.632C101.154 20.28 101.186 20.024 101.186 19.864C101.186 19.64 101.146 19.48 101.066 19.384C101.002 19.288 100.898 19.224 100.754 19.192C100.626 19.16 100.442 19.144 100.202 19.144C99.8658 19.144 99.5938 19.176 99.3858 19.24C99.1778 19.304 99.0098 19.424 98.8818 19.6C98.7538 19.776 98.6338 20.032 98.5218 20.368C98.4258 20.688 98.3298 21.096 98.2338 21.592L96.8418 28H92.3298ZM112.963 28.192C111.459 28.192 110.275 28.088 109.411 27.88C108.563 27.672 107.963 27.344 107.611 26.896C107.275 26.448 107.107 25.872 107.107 25.168C107.107 24.72 107.139 24.224 107.203 23.68C107.267 23.136 107.363 22.544 107.491 21.904C107.715 20.784 107.955 19.824 108.211 19.024C108.467 18.224 108.819 17.568 109.267 17.056C109.715 16.544 110.339 16.168 111.139 15.928C111.955 15.688 113.035 15.568 114.379 15.568C115.739 15.568 116.787 15.656 117.523 15.832C118.275 16.008 118.795 16.296 119.083 16.696C119.387 17.08 119.539 17.6 119.539 18.256C119.539 18.56 119.507 18.92 119.443 19.336C119.395 19.752 119.323 20.184 119.227 20.632C119.131 21.064 119.035 21.488 118.939 21.904L118.723 22.84H111.763C111.731 23.016 111.691 23.224 111.643 23.464C111.595 23.704 111.571 23.88 111.571 23.992C111.571 24.28 111.635 24.488 111.763 24.616C111.891 24.744 112.147 24.824 112.531 24.856C112.931 24.888 113.539 24.904 114.355 24.904C114.659 24.904 115.019 24.896 115.435 24.88C115.851 24.864 116.291 24.848 116.755 24.832C117.219 24.8 117.675 24.768 118.123 24.736L117.475 27.736C117.155 27.832 116.739 27.912 116.227 27.976C115.731 28.04 115.195 28.088 114.619 28.12C114.059 28.168 113.507 28.192 112.963 28.192ZM112.195 20.824H115.027L115.099 20.488C115.147 20.2 115.187 19.968 115.219 19.792C115.251 19.6 115.267 19.432 115.267 19.288C115.267 19.08 115.227 18.928 115.147 18.832C115.067 18.72 114.939 18.648 114.763 18.616C114.603 18.584 114.379 18.568 114.091 18.568C113.755 18.568 113.483 18.592 113.275 18.64C113.083 18.688 112.923 18.784 112.795 18.928C112.683 19.072 112.579 19.296 112.483 19.6C112.387 19.904 112.291 20.312 112.195 20.824ZM120.056 28L122.648 15.76H127.016L126.656 17.872H126.872C127.24 17.248 127.608 16.776 127.976 16.456C128.36 16.12 128.8 15.888 129.296 15.76C129.808 15.632 130.432 15.568 131.168 15.568L130.304 19.576C129.488 19.576 128.808 19.64 128.264 19.768C127.72 19.896 127.272 20.112 126.92 20.416C126.584 20.704 126.304 21.12 126.08 21.664C125.872 22.208 125.68 22.888 125.504 23.704L124.568 28H120.056Z" fill="black"/>
<defs>
<linearGradient id="paint0_linear_187_1701" x1="1.71141" y1="10.2953" x2="20.6174" y2="24.7291" gradientUnits="userSpaceOnUse">
<stop stop-color="#27E372"/>
<stop offset="1" stop-color="#0CACCD"/>
</linearGradient>
</defs>
</svg>
