<svg width="24" height="25" viewBox="0 0 24 25" fill="none" xmlns="http://www.w3.org/2000/svg">
<path d="M17 3.8C13.1 1.6 8.3 2.3 5.1 5.3V3.5C5.1 2.9 4.7 2.5 4.1 2.5C3.5 2.5 3.1 2.9 3.1 3.5V8C3.1 8.6 3.5 9 4.1 9H8.6C9.2 9 9.6 8.6 9.6 8C9.6 7.4 9.2 7 8.6 7H6.2C7.7 5.4 9.8 4.5 12 4.5C16.4 4.5 20 8.1 20 12.5C20 16.9 16.4 20.5 12 20.5C7.6 20.5 4 16.9 4 12.5C4 11.9 3.6 11.5 3 11.5C2.4 11.5 2 11.9 2 12.5C2 18 6.5 22.5 12 22.5C15.6 22.5 18.9 20.6 20.7 17.5C23.4 12.7 21.8 6.6 17 3.8ZM12 8.5C11.4 8.5 11 8.9 11 9.5V12.5C11 13.1 11.4 13.5 12 13.5H14C14.6 13.5 15 13.1 15 12.5C15 11.9 14.6 11.5 14 11.5H13V9.5C13 8.9 12.6 8.5 12 8.5Z" fill="black"/>
</svg>
