<svg width="24" height="25" viewBox="0 0 24 25" fill="none" xmlns="http://www.w3.org/2000/svg">
<path d="M21.3801 6.25992C21.346 6.13223 21.2868 6.01257 21.2062 5.90786C21.1255 5.80316 21.0249 5.71549 20.9101 5.64992L15.7101 2.64992C15.5966 2.58339 15.471 2.53992 15.3406 2.522C15.2103 2.50409 15.0776 2.51209 14.9504 2.54553C14.8231 2.57897 14.7037 2.63721 14.5989 2.7169C14.4942 2.79659 14.4063 2.89616 14.3401 3.00992L12.0001 7.06992L9.66009 3.00992C9.59393 2.89616 9.50597 2.79659 9.40124 2.7169C9.29652 2.63721 9.1771 2.57897 9.04982 2.54553C8.92255 2.51209 8.78993 2.50409 8.65955 2.522C8.52918 2.53992 8.40363 2.58339 8.29009 2.64992L3.09009 5.64992C2.97533 5.71549 2.8747 5.80316 2.79402 5.90786C2.71335 6.01257 2.65423 6.13223 2.62009 6.25992C2.55391 6.51337 2.58982 6.78266 2.72009 7.00992L6.72009 13.8399C6.27384 14.6575 6.02713 15.5689 6.00009 16.4999C5.99771 17.4082 6.20158 18.3052 6.59631 19.1232C6.99105 19.9412 7.56635 20.659 8.27885 21.2223C8.99135 21.7856 9.82244 22.1798 10.7095 22.3752C11.5965 22.5706 12.5163 22.562 13.3995 22.3502C14.2828 22.1383 15.1064 21.7287 15.8083 21.1522C16.5102 20.5757 17.072 19.8474 17.4514 19.0222C17.8309 18.1969 18.018 17.2963 17.9987 16.3882C17.9794 15.4801 17.7542 14.5883 17.3401 13.7799L21.2401 7.01992C21.3127 6.90886 21.3624 6.78447 21.3865 6.65399C21.4105 6.52351 21.4083 6.38955 21.3801 6.25992ZM5.00009 6.87992L8.46009 4.87992L11.6801 10.4999C10.3075 10.5847 9.00688 11.1431 8.00009 12.0799L5.00009 6.87992ZM12.0001 20.4999C10.9392 20.4999 9.92181 20.0785 9.17167 19.3283C8.42152 18.5782 8.00009 17.5608 8.00009 16.4999C8.00009 15.4391 8.42152 14.4216 9.17167 13.6715C9.92181 12.9213 10.9392 12.4999 12.0001 12.4999C13.061 12.4999 14.0784 12.9213 14.8285 13.6715C15.5787 14.4216 16.0001 15.4391 16.0001 16.4999C16.0001 17.5608 15.5787 18.5782 14.8285 19.3283C14.0784 20.0785 13.061 20.4999 12.0001 20.4999ZM16.0001 12.0499C15.4572 11.554 14.8263 11.164 14.1401 10.8999L13.1601 9.06992L15.5801 4.87992L19.0401 6.87992L16.0001 12.0499Z" fill="black"/>
</svg>
